<?xml version="1.0" standalone="no"?>
<!DOCTYPE svg PUBLIC "-//W3C//DTD SVG 1.1//EN" "http://www.w3.org/Graphics/SVG/1.1/DTD/svg11.dtd" >
<svg xmlns="http://www.w3.org/2000/svg" xmlns:xlink="http://www.w3.org/1999/xlink" version="1.1" width="64" heigth="64" viewBox="0 -64 1024 1024" transform="scale(1,-1)">
<path d="M340 875q-2 0 -55 -53q-53 -52 -115.5 -115t-115.5 -116q-52 -53 -53 -55q-1 -3 -1 -5.5t2 -6.5q1 -2 2.5 -4t4.5 -3q2 -1 16 -1h64h77v-89q0 -59 0.5 -76t1.5 -25q6 -51 25 -96t52 -85q7 -9 21.5 -23.5t23.5 -22.5q40 -33 86.5 -52.5t97.5 -25.5q13 -2 38 -2t38 2 q51 6 96.5 25t85.5 52q9 7 23.5 21.5t22.5 23.5q29 36 48 76t27 85q4 20 4.5 35.5t0.5 91.5v93l82 82q43 43 62.5 63t20.5 22q1 3 1 6t-1 6q-2 3 -3.5 4.5t-4.5 2.5t-6 1t-5 -1t-22.5 -21t-65.5 -64q-35 -35 -60 -60.5t-26 -26.5q-1 -2 -1 -17.5t-1 -82.5v-75.5t-1 -29.5 q-6 -49 -23.5 -90.5t-48.5 -79.5q-6 -8 -18.5 -20.5t-20.5 -18.5q-25 -22 -55.5 -38t-61.5 -25q-30 -9 -60.5 -11.5t-61.5 1.5q-53 6 -101.5 29t-86.5 61q-19 20 -33.5 39.5t-26.5 43.5q-12 25 -20 50t-12 55q0 7 -0.5 26t-0.5 82q-1 80 -1.5 91t-3.5 14q-4 3 -12.5 3.5 t-61.5 0.5h-66l154 154q82 82 118 118.5t37 38.5q1 3 1 5.5t-1 5.5q-2 3 -3.5 4.5t-4.5 3.5q-3 1 -6 1t-6 -2v0zM423 875q-2 0 -29 -27t-59 -58.5t-58 -58.5q-27 -27 -27 -29q-1 -3 -1 -6t1 -6t3 -4.5t5 -2.5t5.5 -1t5.5 1q2 0 29 27q27 26 58.5 58t58.5 59t27 29q2 3 2 6 t-1 6q-2 3 -3.5 4.5t-4.5 3.5q-3 1 -6 1t-6 -2v0zM506 875q-2 0 -29 -27t-59 -58.5t-58 -58.5q-27 -27 -27 -29q-2 -3 -1.5 -6t1.5 -6t3 -4.5t5 -2.5t5.5 -1t5.5 1q2 0 29 27l58 58l59 59t27 29q2 3 2 6t-2 6q-1 3 -2.5 4.5t-4.5 3.5q-3 1 -6 1t-6 -2v0zM837 875 q-2 0 -54 -53q-53 -52 -116 -115l-116 -116q-52 -53 -53 -55q-1 -3 -1 -5.5t2 -6.5q1 -2 2.5 -4t4.5 -3t6 -1t6 1q1 1 54 53t116 115t115 116q53 53 54 55q1 3 1 6t-1 6q-2 3 -3.5 4.5t-4.5 3.5q-3 1 -6 1t-6 -2v0zM1003 875q-2 0 -29 -27t-59 -58.5t-58 -58.5 q-27 -27 -27 -29q-1 -3 -1 -6t1 -6t3 -4.5t5 -2.5t5.5 -1t5.5 1q2 0 29 27q27 26 58.5 58t58.5 59t27 29q2 3 2 6t-1 6q-2 3 -3.5 4.5t-4.5 3.5q-3 1 -6 1t-6 -2v0zM1003 793q-2 -1 -29 -28q-27 -26 -59 -58t-58 -59q-27 -27 -27 -29q-1 -3 -1 -6t1 -6t3 -4.5t5 -2.5t5.5 -1 t5.5 1q2 1 29 27l58.5 58.5l58.5 58.5t27 29q2 3 2 6t-1 6q-2 3 -3.5 5t-4.5 3t-6 1t-6 -1v0zM204 658q-6 -3 -9.5 -8t-3.5 -12q0 -6 3.5 -11t9.5 -8q3 -2 5 -2.5t5 -0.5q4 0 9 2.5t8 5.5q7 9 4.5 19t-11.5 15q-6 3 -10.5 3t-9.5 -3v0zM287 658q-6 -3 -9.5 -8t-3.5 -12 q0 -6 3.5 -11t9.5 -8q3 -2 5 -2.5t5 -0.5q4 0 9 2.5t8 5.5q7 9 4.5 19t-12.5 15q-5 3 -9.5 3t-9.5 -3v0z" />
</svg>
