<svg xmlns="http://www.w3.org/2000/svg" version="1.1" icon="this_is_a_hook" viewBox="0 -64 1024 1024" transform="scale(1,-1)">
<title>BF</title>
<path d="M450 869q1 -44 -16 -37.5t-17 -17.5q0 -12 10.5 -22.5t17.5 -25.5q9 -17 12 -37.5t0 -37.5q-2 -12 -5.5 -23t-8.5 -21q-14 -29 -36.5 -43.5t-57.5 -11.5q-33 3 -66 3.5t-67 1.5q-12 1 -37.5 7.5t-26.5 -0.5q-1 -11 4 -18t15 -10q16 -5 33 -9.5t34 -6.5q33 -3 66.5 -3.5 t66.5 -3.5q17 -2 34.5 -7t33.5 -12q26 -12 34.5 -33.5t5.5 -54.5q-2 -31 -17.5 -53t-43.5 -37q-7 -3 -13 -7l-12 -8q-10 -6 -9 -13.5t11 -12.5q7 -3 13.5 -5.5t12.5 -5.5q29 -13 45.5 -45t9.5 -61q-4 -15 -19 -20t-27 4q-19 14 -40 24t-45 12q-20 2 -36.5 -4t-29.5 -21 q-2 -3 -4 -7.5t0 -7.5q1 -3 5.5 -5.5t8.5 -2.5q8 -1 16 -1h16q51 1 84.5 -21t50.5 -68q21 -55 -12.5 -93.5t-78.5 -47.5q-32 -6 -59 3t-51 26q-23 16 -42.5 36t-37.5 43q17 -1 33 -1t31 -2q21 -2 41.5 -5.5t41.5 -6.5q4 -1 8 -2.5t7 -3.5q11 -4 11 -10t-9 -13q-5 -2 -9.5 -6 t-0.5 -9q5 -4 8.5 -5t8.5 -2q3 -1 7 -1h8q11 2 21 6.5t14 15.5q5 11 1 20t-11 18q-19 22 -44 30t-53 10q-39 3 -78.5 5.5t-78.5 6.5q-9 0 -17.5 3t-17.5 6q-21 8 -28.5 25t1.5 38l26 -8t26 -6q29 -5 56 1t50 25q11 10 16.5 21.5t3.5 26.5q-1 9 -6 11t-12 -3t-13.5 -10 t-13.5 -11q-17 -15 -37.5 -19.5t-43.5 0.5q-24 6 -45 17t-33 33q-14 24 -6 54t33 52q6 4 11.5 8t9.5 7q10 -7 19 -14t18 -13q6 -3 12 -2.5t10 6.5q4 7 2.5 13t-7.5 11l-12 10t-10 11q-12 16 -9.5 35t17.5 32q1 1 3.5 2t4.5 1q26 1 51 1t51 -1q9 0 18.5 -1.5t18.5 -4.5 q22 -7 33.5 -24.5t8.5 -37.5q-3 -19 -19.5 -31.5t-39.5 -13.5h-8h-8q-10 -1 -10 -7.5t2 -8.5q15 -19 38 -23t45 7q51 26 54 79.5t-44 84.5q-18 12 -37.5 18t-40.5 7q-26 1 -52 1t-51 1q-25 2 -47 11t-39 27q-12 14 -15 30.5t4 34.5q13 34 45 50t73 9q28 -5 55 -12t55 -11 q17 -3 35.5 -3t35.5 2q28 3 45 19.5t23 42.5q7 27 -1 49t-31 39q-19 14 -40.5 21t-45.5 10q-25 3 -50 2t-50 -9q-14 -5 -17.5 -12.5t-2.5 -11.5q1 -3 6.5 -6t10.5 -3q20 0 40.5 0.5t41.5 -0.5q22 -1 43 -5.5t38 -19.5q13 -12 17.5 -25.5t-0.5 -24.5q-5 -13 -18 -20.5 t-31 -6.5q-13 1 -25.5 2.5t-24.5 4.5q-27 5 -53.5 11t-53.5 10q-11 2 -23 2t-24 1q-12 30 -13.5 52t29.5 50q29 25 64 41.5t76 15.5q14 -1 28 -5.5t29 -7.5l24 -4l24 -4q2 -1 8.5 -1.5t3.5 4.5q-4 6 -7.5 12t-7.5 10q-22 20 -48 29t-55 10h-8h-8l-0.5 0.5t-1.5 0.5 q10 16 23.5 28t33.5 17q25 5 49.5 1t46.5 -18t28 -28.5t6 -42.5v0zM62 489q-6 3 -10 3t-9 -4q-26 -21 -35 -47.5t-8 -56.5q1 -11 4.5 -20.5t13.5 -15.5q8 7 16 13.5t16 11.5q9 6 18.5 10.5t18.5 9.5q-4 21 1.5 40t17.5 36q-11 5 -22 9.5t-22 10.5v0zM576 866q1 26 4.5 40 t13.5 24q33 33 82 29.5t76 -40.5q1 -1 2 -3t3 -4q-41 -2 -76 -12.5t-57 -46.5q1 -1 1 -2.5t1 -3.5h15t16 1q7 1 14.5 3.5t14.5 5.5q29 12 58 11.5t57 -12.5q22 -10 43 -22t38 -30q15 -16 19.5 -34.5t-3.5 -39.5q-2 -6 -4 -11.5t-3 -10.5q-46 3 -89 -9.5t-87 -18.5 q-10 -1 -20 -1.5t-20 0.5q-22 4 -30.5 22t1.5 37q11 19 28 28t38 11q26 2 52.5 2t52.5 1q6 0 11.5 1t7.5 8q2 8 -1.5 13.5t-10.5 7.5q-48 15 -94 12t-90 -28q-26 -16 -35.5 -40.5t-1.5 -54.5q7 -28 26 -43.5t51 -18.5q33 -3 65.5 3.5t64.5 14.5q21 5 42 8.5t43 -1.5 q33 -7 54.5 -35.5t15.5 -57.5q-3 -18 -13.5 -29.5t-25.5 -20.5q-18 -10 -37 -14.5t-40 -3.5h-59.5t-58.5 -8q-18 -5 -34 -14t-29 -23q-27 -28 -21 -70t40 -68q23 -18 47.5 -16.5t44.5 21.5q2 2 3 6.5t1 7.5q0 2 -4.5 3t-7.5 2q-7 1 -14 1t-13 1q-20 5 -31.5 17t-13.5 31 q-2 15 8 30.5t26 23.5t33.5 9t34.5 0q18 0 36 0.5t36 -0.5q3 0 7 -1t6 -4q17 -15 16.5 -37t-17.5 -38q-4 -3 -7.5 -5.5t-7.5 -5.5q-6 -5 -6.5 -11t2.5 -12q4 -7 9.5 -7.5t11.5 2.5q9 6 17.5 13t18.5 14q22 -10 39.5 -36.5t16.5 -52.5t-18 -45.5t-48 -31.5 q-29 -10 -55.5 -6.5t-48.5 25.5q-5 5 -10.5 9t-10.5 8q-6 4 -10.5 2t-6.5 -9q-3 -17 3.5 -30t19.5 -23q32 -24 67 -25.5t71 12.5q3 1 6 2.5t6 2.5q10 -16 4 -35t-24 -26q-18 -6 -38 -10.5t-39 -6.5q-35 -3 -70.5 -5t-70.5 -5q-19 -2 -36 -10t-30 -23q-9 -10 -14.5 -20.5 t1.5 -24.5q5 -10 19 -15.5t30 -2.5q4 0 8 2.5t8 4.5q-3 4 -5 8t-5 7q-9 7 -9 13.5t11 10.5q17 5 34.5 9t34.5 6q22 2 44.5 3t46.5 3q-12 -14 -23 -27t-23 -24q-21 -21 -45.5 -37t-55.5 -22q-54 -10 -98.5 29t-37.5 90t44.5 82t89.5 30h17.5t17.5 1q4 0 8.5 2.5t6.5 6.5 q1 2 -0.5 7t-4.5 7q-16 19 -37.5 24t-44.5 -3q-17 -5 -33.5 -14.5t-32.5 -18.5q-11 -7 -25.5 -2.5t-18.5 17.5q-8 27 7 59.5t42 46.5q7 3 14.5 6.5t14.5 6.5q11 5 11.5 12.5t-9.5 14.5q-7 5 -15 10t-17 9q-42 22 -48.5 65t2.5 73q4 15 16 24.5t27 15.5q27 12 56.5 14t59.5 4 q29 2 58.5 4.5t58.5 6.5q7 1 14.5 5t14.5 8q3 3 6 7.5t3 9.5q1 3 -1 8t-5 7q-3 1 -7.5 -1t-8.5 -3q-10 -3 -19.5 -7t-19.5 -4q-31 -2 -61.5 -3t-61.5 -2q-48 -3 -75.5 19t-36.5 70q-3 15 -3 31t1 32q1 14 8.5 25t20.5 19q4 2 7.5 4.5t6.5 5.5q3 2 5.5 9.5t-9.5 13.5l-14.5 9 t-14.5 35v0zM1007 349q26 20 13 74t-48 70q-14 -6 -27 -12l-26 -12q12 -17 17 -36t2 -38q18 -12 35 -23t34 -23v0z" />
</svg>
