<?xml version="1.0" standalone="no"?>
<!DOCTYPE svg PUBLIC "-//W3C//DTD SVG 1.1//EN" "http://www.w3.org/Graphics/SVG/1.1/DTD/svg11.dtd" >
<svg xmlns="http://www.w3.org/2000/svg" xmlns:xlink="http://www.w3.org/1999/xlink" version="1.1" width="64" heigth="64" viewBox="0 -64 1024 1024" transform="scale(1,-1)">
<path d="M330 841q-46 -8 -87 -27q-40 -18 -73.5 -46t-59.5 -64t-43 -80q-16 -39 -22 -73t-8 -89q-1 -46 0 -67t9 -60q15 -81 42 -130t80 -86q31 -23 67 -38q36 -16 75 -24t81 -8t86 7q41 7 66 13.5t25 10.5q0 2 -8 46t-10 50q0 2 -9 1t-26 -6q-33 -10 -83.5 -11t-82.5 7 q-76 20 -121.5 80t-54.5 153q-8 74 8 140t54 116q45 59 118.5 77t160.5 -9q13 -4 22.5 -6.5t10.5 -1.5t13.5 50t12.5 52q0 2 -13.5 6.5t-32.5 9.5q-42 10 -101 12t-96 -5v0zM645 369v-308h125l1 126l1 126l100 1l100 1v101l-100 1l-100 1v153l106 1l106 1v105h-339v-309v0z" />
</svg>
