<svg xmlns="http://www.w3.org/2000/svg" version="1.1" icon="this_is_a_hook" viewBox="0 -44 979 1024" transform="scale(1,-1)">
<title>Chapel</title>
<path d="M925 770q-13 -11 -32.5 -25t-22.5 -14q-2 0 -48 50.5t-117 86.5q3 10 9.5 23.5t6.5 19.5q0 3 -8 6.5t-13 5.5q-41 16 -92.5 26t-94.5 10q-55 0 -116 -14t-120 -45.5t-112 -82.5q-53 -50 -92 -124q9 -5 19.5 -12t21.5 -12q-25 -48 -35.5 -99t-10.5 -99q0 -42 5 -73t19 -76 q14 -41 39 -82.5t66 -82.5q31 -30 68.5 -55.5t73.5 -37.5q1 -2 4 -2t3 -5q0 -4 -9.5 -24.5t-9.5 -26.5q0 -3 6.5 -5t12.5 -4q34 -11 82 -21t85 -10q50 0 108 13t115 41.5t109 74.5q52 45 92 110q1 0 4 -2.5t5 -2.5q-44 -67 -97 -113t-110 -74.5t-115 -41.5q-58 -12 -113 -12 q-67 0 -139 19q-71 19 -136 60.5t-120 107.5q-54 66 -88 159q-2 8 -13 55t-11 58v100q16 116 65 202q49 87 118.5 144t154.5 85q84 29 171 29q49 0 103 -11q53 -10 107 -34t106 -64t96 -99v0zM671 906q-5 -11 -10 -21.5t-9 -21.5q-56 21 -79.5 23.5t-66.5 2.5q-44 0 -90 -9 q-46 -10 -91 -32t-87 -59q-42 -36 -77 -91q-8 5 -18.5 10.5t-19.5 10.5q36 60 83 101t98.5 67t103.5 38q53 12 100 12q29 0 83.5 -9t79.5 -22v0zM587 863q17 -4 56 -19t45 -15q5 0 5 3v5q27 -13 61 -38t63 -56q-7 -9 -20 -21t-18 -12q-2 0 -33 29.5t-65 49.5 q-34 19 -82.5 29.5t-87.5 10.5q-75 0 -140 -28t-114 -76.5t-77 -114.5q-28 -65 -28 -139q0 -76 28 -142t77 -114.5t114 -77.5q65 -28 140 -28q64 0 137 28t136 97q9 -8 19 -16t19 -15q-32 -39 -71 -66q-38 -28 -79 -45t-81 -25q-41 -8 -78 -8q-55 0 -113 15 q-57 15 -110 47.5t-96 83.5q-43 52 -68 124q-6 18 -14 51t-8 52v72q2 34 13.5 74t27.5 72q2 0 3.5 -1t3.5 1q9 13 17 27.5t19 27.5q25 38 67 70.5t74 49.5q11 5 21.5 10t21.5 9q14 7 32.5 11t36.5 8q17 3 43 4t29 1q6 0 31 -1t43 -4v0zM812 633q-7 -7 -15.5 -11t-17.5 -8 q0 2 -1.5 5t-3.5 5q5 3 10.5 7t11.5 9q-25 42 -59 72q-35 29 -74 48.5t-78 28.5q-40 9 -74 9q-6 0 -19 -1.5t-24 -2.5l-2 0.5t-5 3.5v-31q-67 -14 -114 -45t-77 -71.5t-44 -87.5t-14 -92q0 -59 19 -109t52.5 -88.5t78.5 -65.5q46 -26 99 -37q-11 -23 13 -25.5t37 -2.5 q68 0 140 32t133 109q-4 4 -9 7.5t-11 9.5l5 4q7 -3 15.5 -8t15.5 -11q-28 -43 -63 -73t-73 -49t-76 -27q-38 -9 -72 -9q-45 0 -94 14q-49 13 -93 41.5t-81 72.5q-36 43 -55 104q-6 20 -11.5 48t-5.5 31v58q11 79 43 137q33 58 79 96t102 57q56 18 113 18q40 0 79 -7 q39 -8 77 -27.5t74 -52.5q36 -34 69 -85v0zM549 774q50 -5 106.5 -31.5t106.5 -87.5q-5 -6 -14 -14t-15 -8q-1 0 -39 42.5t-121 60.5q-18 4 -37.5 4.5t-39.5 0.5v33h53v0zM642 676q-1 -3 -5.5 -7.5t-8.5 -4.5q-5 0 -12.5 4.5t-11.5 7.5q-11 7 -41.5 12t-44.5 5 q-48 0 -88 -18q-41 -18 -71 -48.5t-47 -70.5q-17 -41 -17 -85q0 -49 19 -90t50.5 -70.5t72.5 -45.5q40 -17 83 -17q56 0 88.5 20.5t41.5 20.5q3 0 6.5 -4.5t7.5 -7.5q-41 -27 -73.5 -37.5t-70.5 -10.5q-3 0 -23 1.5t-34 5.5q-4 -5 -5.5 -11t-1.5 -13h-10q-45 11 -98.5 55 t-71.5 91q6 2 12.5 5t11.5 7q-11 25 -16 51t-5 50q0 51 19 94q19 44 52 76t76 51q44 18 92 18q29 0 63 -9.5t61 -24.5v0zM750 274q-45 -50 -92 -74t-92 -31q-9 -2 -21 -4.5t-17 -2.5h-32q2 7 2 15.5t-2 22.5h48q42 9 89 29.5t88 68.5q8 -5 15 -11.5t14 -12.5v0zM941 255 q-33 -73 -83 -125q-51 -51 -109 -83.5t-119 -46.5q-61 -15 -114 -15q-9 0 -77.5 7.5t-68.5 18.5q0 4 5 17.5t9 25.5q38 -11 69.5 -15t62.5 -4q50 0 103 14q53 13 103.5 42t95.5 74q45 46 78 109q11 -5 23 -10t22 -9v0z" />
</svg>
