<svg xmlns="http://www.w3.org/2000/svg" version="1.1" icon="this_is_a_hook" viewBox="0 -85 1024 1024" transform="scale(1,-1)">
<title>Clojure</title>
<path d="M920 122q-48 -65 -114 -111t-141.5 -70.5t-155.5 -24.5q-81 -1 -156 26q-68 22 -128 63q-59 40 -105 94.5t-75 119.5q-30 66 -38 137q-11 62 1 127t59 112q33 36 78.5 58t94.5 21v0q34 4 37.5 -5.5t-19.5 -26.5q-42 -47 -61 -108q-20 -60 -17 -122.5t28 -121.5 q25 -58 71 -101q36 -37 83 -60q46 -23 96.5 -31t102.5 -1q51 7 97 30q63 -21 130 -20.5t132 15.5v0zM310 600q-36 -40 -51 -91t-10.5 -103t27.5 -100q24 -48 65 -82q20 3 30.5 46.5t29.5 67.5q13 37 41.5 74t17.5 77q-17 40 -38 85.5t-64 63.5v2q-16 -3 -27.5 -15.5 t-20.5 -24.5v0zM490 401q-20 -48 -41.5 -96t-25.5 -100q7 -52 67.5 -47.5t98.5 13.5q-43 48 -61.5 109.5t-36.5 120.5h-1v0zM1015 511q-13 89 -59 168q-46 78 -114.5 136t-153.5 91q-85 32 -176 31v1q-57 0 -113 -13t-107 -38t-96 -61t-81 -80q63 31 135 27.5t131 -40.5 q46 20 96 25q51 5 100 -4.5t94 -32.5q45 -24 79 -60q47 -44 70 -105q24 -61 24.5 -125t-21.5 -125q-23 -61 -69 -106q47 -6 97 3t90 38q64 45 75 122.5t-1 147.5v0zM437 681q27 -34 45 -73q17 -39 30.5 -80.5t24.5 -83.5q12 -42 28 -81q20 -41 40 -87t66 -63q52 37 80 95 t28 121q1 51 -19 98q-20 46 -54.5 82t-80.5 59t-97 26v-2q-23 2 -46 -1t-45 -10v0z" />
</svg>
