<svg xmlns="http://www.w3.org/2000/svg" version="1.1" icon="this_is_a_hook" viewBox="0 -64 1024 1024" transform="scale(1,-1)">
<title>COBOL</title>
<path d="M209 379l-38.5 -24t-87.5 18q-57 48 -43.5 104.5l13.5 56.5l-40.5 -48t14.5 -147q55 -100 129 -85l74 15q-8 -30 -6 -30t-14 -18q20 -46 8 -61.5t-8 -33.5q2 -7 8.5 -9.5l6.5 -2.5q7 -15 15 -17t25 5q17 -8 28 -6.5t23 18.5q10 -1 19 0.5t11 17.5l-35 31l-2 48 q16 21 36.5 50.5t13.5 72.5q33 19 47 -10.5t51 -27.5q-2 -17 -2 -32t5 -26q20 -15 22 -32.5t18 -36.5q6 -8 15.5 -10t22.5 -10q20 -13 26 -32t0 -34q-5 -15 -11.5 -25.5t1.5 -30.5q14 1 24 -3.5t21 -16.5q13 9 28.5 12.5t37.5 -6.5q28 4 23 17t25 14q20 28 -2 33t-32 35 l18 21q13 -6 25 -8.5t23 2.5l1 11q-50 100 -21.5 165.5t1.5 159.5q13 23 51 17t80 -14.5t77 -5.5q35 2 43 43q-21 -10 -40 4t-42 40q22 9 54 3t48 -47q22 22 26.5 50t-23.5 87q19 21 20.5 51.5t-0.5 62.5q-12 -31 -24 -46t-36 -28q-45 -1 -82 2.5t-37 47.5q28 35 60.5 63.5 t35.5 61.5q-56 -27 -95 -55t-59 -52l-8 13q28 32 32.5 63.5t-4.5 64.5q-8 -31 -23.5 -55t-40.5 -40q-18 -2 -26 14.5t-13 28.5q-18 -10 -29 -1.5t-22 21.5q-20 -13 -37 -16.5t-39 -1.5q-12 -15 -32 -18t-39 -4q9 -25 -6.5 -38.5t-40.5 -22.5l28 -28q-45 -25 -63 -53t-54 -50 q-91 -20 -134 -80.5t-23 -165.5v0zM607 245l-7 61l23 7l5 -86l-21 18v0z" />
</svg>
