<?xml version="1.0" standalone="no"?>
<!DOCTYPE svg PUBLIC "-//W3C//DTD SVG 1.1//EN" "http://www.w3.org/Graphics/SVG/1.1/DTD/svg11.dtd" >
<svg xmlns="http://www.w3.org/2000/svg" xmlns:xlink="http://www.w3.org/1999/xlink" version="1.1" width="64" heigth="64" viewBox="0 -64 1024 1024" transform="scale(1,-1)">
<path d="M285 749q-15 15 -16.5 30t10.5 30q5 6 17 9.5t54 9.5q18 3 39 -4t21 -16q0 -7 -8 -8t-33 2q-19 2 -33.5 1t-21.5 -4q-13 -8 -14 -14.5t11 -17.5q12 -13 52 -9t69 20q13 8 29 17.5t28 15.5q11 6 29 13.5t32 10.5q87 23 164 1.5t77 -67.5q0 -28 -36.5 -46t-92.5 -17 q-33 1 -50.5 5.5t-29.5 15.5q-13 11 -12 17.5t16 15.5q12 8 16.5 7.5t15.5 -10.5q22 -20 69.5 -14t47.5 28q0 14 -17 21t-51 7q-38 1 -72.5 -9t-91.5 -38q-69 -34 -126 -34.5t-92 31.5v0zM71 692q20 -18 60.5 -32.5t105.5 -27.5q77 -15 136.5 -19.5t178.5 -3.5q74 0 137 4 q64 5 117 13t96 20t75 29q40 20 43.5 45.5t-30.5 46.5q-15 8 -17.5 8t1.5 -10q4 -15 -2 -26.5t-25 -23.5t-70.5 -26.5t-90.5 -18.5q-14 -2 -28.5 -4t-22.5 -4q-13 -3 -68 -5q-54 -1 -118.5 -1t-125.5 2q-60 2 -86 5q-87 12 -144 30.5t-74 40.5q-10 12 -10.5 17.5t7.5 16.5 q9 14 4.5 15t-25.5 -11q-38 -20 -44 -39.5t20 -40.5v0zM1000 628q-28 -19 -72 -33t-100 -23q-10 -1 -22 -3.5t-18 -3.5q-25 -5 -83 -8q-58 -4 -124.5 -5t-129.5 0q-64 1 -100 6q-103 11 -177 31t-103 45l-16 15l5 -29q1 -12 6.5 -36t11.5 -45l15 -52l-35 -38 q-57 -63 -57 -135.5t57 -121.5q34 -29 83.5 -34.5t85.5 15.5q9 5 8 6.5t-14 2.5q-28 0 -65.5 25t-57.5 58q-11 16 -18 48t-5 51q3 17 16.5 45.5t19.5 28.5q2 0 8 -10t12 -24q7 -14 27 -46t42 -63q36 -50 60.5 -96t24.5 -64q0 -13 33.5 -34t72.5 -34q34 -11 60.5 -14t84.5 -3 q126 0 189 29t82 96q4 15 16.5 38.5t24.5 40.5q64 89 86.5 128t45.5 101q7 20 15.5 48.5t13.5 48.5t9 36.5t5 19.5q1 4 -5.5 1.5t-17.5 -9.5v0z" />
</svg>
