<?xml version="1.0" standalone="no"?>
<!DOCTYPE svg PUBLIC "-//W3C//DTD SVG 1.1//EN" "http://www.w3.org/Graphics/SVG/1.1/DTD/svg11.dtd" >
<svg xmlns="http://www.w3.org/2000/svg" xmlns:xlink="http://www.w3.org/1999/xlink" version="1.1" width="64" heigth="64" viewBox="0 -64 1024 1024" transform="scale(1,-1)">
<path d="M746 469q-17 -45 -37 -90q-21 -44 -39 -79.5t-30 -57.5l-12 -22h-84q7 12 34 60q26 48 52 109t42 124t2 104q-9 29 -31 63.5t-48 73.5l84 -1q38 -56 70 -118q33 -62 61.5 -129t53.5 -139t48 -147h-78q-20 68 -41.5 131.5t-46.5 117.5v0zM1008 448q0 -106 -39 -199 q-39 -94 -106.5 -163.5t-157.5 -109.5t-193 -40t-193 40t-157.5 109.5t-106.5 163.5q-39 93 -39 199t39 199q39 94 106.5 163.5t157.5 109.5t193 40t193 -40t157.5 -109.5t106.5 -163.5q39 -93 39 -199zM411 133q-27 39 -48 75t-32 64q-13 34 1 92q15 59 39.5 119t50.5 110 q26 51 38 68q1 1 0 3t-3 2l-78 3l-12 -22q-13 -21 -31.5 -56.5t-39.5 -79.5q-21 -45 -37 -91q-25 54 -46.5 117.5t-41.5 131.5h-78q23 -75 48 -147q26 -72 54.5 -140t60.5 -130q33 -62 71 -117l84 -2v0zM645 0q12 -1 25.5 -0.5t25.5 0.5q63 28 116 73t91 103t59 127t21 145 q0 101 -37 189q-37 89 -101 155t-150 104q-85 39 -183 39q-58 0 -113 -14.5t-103 -40.5q101 9 169 -38q68 -46 96.5 -117.5t14.5 -151.5q-13 -81 -74 -140q-44 -43 -65 -118t6 -150q23 -64 77 -109.5t125 -55.5v0z" />
</svg>
