<svg xmlns="http://www.w3.org/2000/svg" version="1.1" icon="this_is_a_hook" viewBox="0 -64 1024 1024" transform="scale(1,-1)">
<title>Coq</title>
<path d="M529 540q21 31 45 57.5t45 27.5q52 4 101.5 -2t77.5 -32q9 -9 28.5 -26.5t23.5 -40.5q5 -28 4 -64t-7.5 -73.5t-18.5 -73.5q-11 -37 -29 -67q-16 -29 -48 -50t-64 -34t-56 -20l-24 -6q-23 -4 -47 -9t-39 -20q-18 -17 -22 -40.5t-4 -41.5q0 -10 7 -34.5t28 -31.5 q14 -4 14.5 -13.5l0.5 -9.5h-257q1 8 11 17t21 23q13 16 23.5 34t16.5 29q6 12 6.5 23l0.5 11q-5 34 -48 66t-78 51q-33 18 -52.5 35t-18.5 28q2 24 52 49.5t82 65.5q26 33 31.5 66.5l5.5 33.5q-1 28 -2 41.5t-11 28.5q-9 15 -17.5 22.5t-11.5 28.5t-19 21.5l-16 0.5 l-60 -17l-3 3l15.5 19.5t25.5 33.5q4 5 4 14v9q-3 8 -45.5 52t-16.5 116q24 64 77 88.5t112 29.5q51 5 89 -21q37 -26 55.5 -68.5t15.5 -95.5t-33 -103l-22.5 -23t-23.5 20q-2 39 -15 56l-13 17h-4t-3 -20q1 -9 2 -53q1 -43 3.5 -95t6.5 -99q4 -48 8 -65q3 -11 10 -16.5 t18 10.5q23 34 29.5 67t32.5 70v0zM627 213q7 26 1 52t-18 28q-9 2 -15.5 -8t-6.5 -31q0 -24 -0.5 -46t-11.5 -30q-12 -9 -13.5 -17t0.5 -9q4 -3 29.5 12t34.5 49v0z" />
</svg>
