<?xml version="1.0" standalone="no"?>
<!DOCTYPE svg PUBLIC "-//W3C//DTD SVG 1.1//EN" "http://www.w3.org/Graphics/SVG/1.1/DTD/svg11.dtd" >
<svg xmlns="http://www.w3.org/2000/svg" xmlns:xlink="http://www.w3.org/1999/xlink" version="1.1" width="64" heigth="64" viewBox="0 -64 1024 1024" transform="scale(1,-1)">
<path d="M431 371l166 -50q-8 -35 -21.5 -64t-31.5 -53q-17 -23 -39.5 -40.5t-49.5 -29.5q-26 -12 -60 -18t-75 -6q-50 0 -91 7t-73 22q-31 14 -58.5 39.5t-50.5 62.5t-34.5 83.5t-11.5 103.5q0 76 20 134.5t61 99.5q40 41 97.5 61.5t131.5 20.5q58 0 103.5 -12t78.5 -35 q33 -24 57.5 -60t40.5 -84l-167 -37q-4 14 -8.5 24t-9.5 17q-8 11 -18 19t-21 14q-12 6 -24.5 9t-27.5 3q-32 0 -56.5 -13t-41.5 -39q-13 -19 -19.5 -49t-6.5 -72q0 -51 7.5 -85.5t23.5 -53.5q15 -19 37 -28.5t50 -9.5q27 0 47.5 7.5t34.5 22.5q14 16 24 38t16 51v0z M927 467v96h-81v-96h-115v96h-81v-96h-95v-81h95v-95h81v95h115v-95h81v95h96v81h-96v0z" />
</svg>
