<?xml version="1.0" standalone="no"?>
<!DOCTYPE svg PUBLIC "-//W3C//DTD SVG 1.1//EN" "http://www.w3.org/Graphics/SVG/1.1/DTD/svg11.dtd" >
<svg xmlns="http://www.w3.org/2000/svg" xmlns:xlink="http://www.w3.org/1999/xlink" version="1.1" width="64" heigth="64" viewBox="0 -64 1024 1024" transform="scale(1,-1)">
<path d="M152 847l65 -735l295 -82l295 82l65 735h-720v0zM736 679l-22 -248v0l-16 -172l-1 -15l-185 -51l-185 51l-12 142h90l7 -72l100 -27v0h1l100 27l10 117h-210l-2 20l-4 46l-2 24h226l9 92h-346l-1 20l-4 46l-3 24h452l-2 -24v0z" />
</svg>
