<svg xmlns="http://www.w3.org/2000/svg" version="1.1" icon="this_is_a_hook" viewBox="0 -64 1024 1024" transform="scale(1,-1)">
<title>Elixir</title>
<path d="M616 419q20 -23 29.5 -54t9.5 -70v-30h-248v-1q0 -28 7 -50t22 -37t35.5 -23t47.5 -8q14 0 28 2t29 6t30.5 10t32.5 14v-55q-16 -6 -32 -10.5t-31 -7.5t-29.5 -4.5t-28.5 -1.5q-41 0 -72.5 12t-54.5 36q-23 25 -34.5 58.5t-11.5 75.5t11.5 75t33.5 58q23 25 53 37.5 t68 12.5q33 0 59.5 -11.5t45.5 -33.5v0zM829 293q0 104 -48 164t-105.5 119.5t-103.5 140.5q-47 81 -44 227q-80 -62 -143 -144q-62 -81 -104.5 -168.5t-63.5 -172.5q-22 -86 -22 -158q0 -62 17 -125q17 -62 55 -112t98 -81q61 -31 147 -31q74 0 133 25q59 26 100 71.5 t63 107.5q21 63 21 137zM409 313h190q0 25 -6 44.5t-18 32.5q-11 13 -27.5 19.5t-37.5 6.5t-38.5 -6.5t-30.5 -20.5q-14 -14 -22 -33t-10 -43v0z" />
</svg>
