<svg xmlns="http://www.w3.org/2000/svg" version="1.1" icon="this_is_a_hook" viewBox="0 -64 1024 1024" transform="scale(1,-1)">
<title>Factor</title>
<path d="M673 423l7 -2t7 -4q0 -3 4.5 -6t7.5 0q1 1 1.5 0.5l0.5 -0.5q1 -5 6.5 -6t9.5 7q0 1 1.5 2t2.5 -1q4 -4 6 -4t5 2q6 11 16 17l10 6q6 -3 14 3.5t7 16.5q0 6 -4 8.5t-19 1.5q14 7 18 14l4 7l0.5 12.5t3.5 13.5q8 2 12.5 4l4.5 2l-0.5 2t1.5 3q2 2 6 3t6 2q3 2 4 -0.5 t4 -1.5q1 1 0.5 3.5t0.5 2.5q26 5 38.5 24t14.5 23q2 3 15.5 6l13.5 3q16 -8 29.5 -15.5t36.5 -9.5q11 -1 16 -0.5t12 -5.5t8.5 -3.5l1.5 2.5q0 3 -1 6t-1 6q-1 2 -0.5 3.5t-0.5 3.5q-3 -5 -4 -3t-3 4q-1 1 -2.5 1t-0.5 4q-3 -2 -5.5 -2.5t-4.5 2.5q-3 3 -6.5 4.5t-5.5 1.5 q-4 0 -9.5 2.5t-6.5 3.5q-3 4 -10.5 8t-13.5 6t-7 3.5l-1 1.5l0.5 4t6.5 5q2 1 8.5 -0.5t15.5 -1.5q10 -7 10 -5t5 2l1.5 -2.5t1.5 -1.5q2 3 4 2t2 -2q1 -1 3 1t0 -3q2 1 2.5 2l1.5 3q1 -1 1.5 -2.5t0.5 -4.5q2 1 4 3t4 5q2 -1 3 -2.5t1 -4.5q2 1 3 2.5t1 3.5q1 -1 1 -2.5 v-3.5q1 1 1.5 2t0.5 3q2 -1 2 -3.5t-1 -5.5q2 1 3.5 3t2.5 4q0 -2 0.5 -4t0.5 -4q4 7 6 6.5l2 -0.5q2 9 -0.5 17.5t-8.5 13.5q-3 3 -7 4l-8 2q-10 5 -13.5 9t-10.5 -1q-6 -4 -8 0.5l-2 4.5q-14 13 -24.5 13h-16.5q-5 0 -16.5 1.5l-11.5 1.5q-13 0 -19 -6t-21 -18t-24 -24 t-10 -16q-3 -11 -6.5 -17t-27.5 -12q-27 -6 -48 10t-45 14q-19 -2 -31.5 -3t-37.5 1q-10 1 -16.5 -2t-15.5 -3q-35 3 -61 -11.5t-49 -25.5q-8 -3 -15 -6.5t-18 -4.5q-10 -1 -20.5 1t-22.5 4q-16 4 -33 6t-33 6q-8 3 -17 7.5t-18 7.5q-10 5 -21 6.5t-22 4.5q-12 3 -23.5 9.5 t-22.5 8.5q-6 2 -11.5 2.5t-11.5 2.5q-18 4 -32 8t-31 5q-44 3 -74.5 -4t-57.5 -28l4 -0.5t24 8.5q21 8 64 8.5t70 -13.5t43.5 -19t47.5 -20l28.5 -16t69.5 -38q16 -8 31 -13t29 -11q23 -10 36 -17t16 -8q4 -2 8.5 -3.5t9.5 -6.5q4 -5 6.5 -4t4.5 -1q3 -4 6 -5t4 -4t5 -17.5 t4 -17.5l-13.5 -3.5t-15.5 -9.5q-2 -7 -4 -20t-17 -28q-3 -3 -6.5 -4.5t-7.5 -2.5t-8 -4.5t-1 -9.5q1 -2 3 -5t3 -6q1 -19 1 -33v-14l0.5 -4t0.5 -11t6 -15t24 -5q13 1 13.5 2.5t7.5 0.5q7 0 15.5 -2t11.5 -4q2 -2 2 0.5t-1 4.5q-3 4 -4.5 7t-1.5 6t7.5 1t11.5 -6l0.5 6 t-14.5 17q-5 4 -8 1.5t-6 1.5q-3 3 -6.5 2t-4.5 -1q-2 1 -1 7.5t3 6.5q3 0 7 0.5t-2 7.5q-1 1 0 4.5t4 3.5q3 -1 8 -5t5 -9l0.5 0.5t0.5 1.5q1 4 -3.5 13.5t-18.5 11.5q-4 1 -5.5 0t-4.5 -7q-2 5 -4 5h-2l-2 -8.5t-1 -21.5q-2 -2 -5 0l-3 2q-8 11 -8 23.5t7 22.5l1 6l8.5 7 t22.5 16q11 7 21 11t27 20t23 25t11 20q16 -1 25.5 0.5t19.5 5.5q-5 -21 -21 -26.5t-17 -14.5q0 -7 5 -8.5l5 -1.5h10.5t22.5 -7t18 -11.5t6 -10.5l1.5 -3.5t-0.5 -6.5q-1 -1 -1.5 -5t1.5 -8t-1 -3t-5 -11l-3 2t-5 6q-2 0 -2.5 -2.5t1.5 -8.5t8 -10.5t14 3.5l1 0.5t2 -1.5 t5 -3.5t8 1.5q3 4 7 5t3 13q3 4 3 8t-3 8l-1 1.5t2 1.5q3 1 6 5t4 11l4.5 -2.5t6.5 -8.5q3 -7 3.5 -9t1.5 -2t3 3.5t0 9.5q-1 6 -8.5 14t-18.5 8l-4 0.5t-5 0.5q-2 2 -4.5 1t-2.5 0q-2 1 -5 4.5t-3 7.5t-25 7l-25 3l-3 3.5t5 5.5q17 4 31.5 13l14.5 9v0z" />
</svg>
