<?xml version="1.0" standalone="no"?>
<!DOCTYPE svg PUBLIC "-//W3C//DTD SVG 1.1//EN" "http://www.w3.org/Graphics/SVG/1.1/DTD/svg11.dtd" >
<svg xmlns="http://www.w3.org/2000/svg" xmlns:xlink="http://www.w3.org/1999/xlink" version="1.1" width="64" heigth="64" viewBox="0 -64 1024 1024" transform="scale(1,-1)">
<path d="M0 448v-512h1024v1024h-1024v-512zM317 631q12 -3 21.5 -8.5t17.5 -13.5q10 -11 12.5 -20t2.5 -38q0 -31 -3 -41t-14 -21q-13 -12 -30 -17.5t-41 -5.5q-8 0 -16.5 0.5t-12.5 1.5q-19 4 -33.5 14t-20.5 24q-4 6 -4.5 12.5t-0.5 30.5t0.5 30.5t4.5 13.5q6 14 19 24t31 14 q11 3 33.5 3t33.5 -3v0zM774 631q17 -4 30.5 -13.5t19.5 -23.5q3 -6 4 -12.5t2 -25.5q0 -13 -0.5 -23.5t-1.5 -15.5q-3 -16 -14 -27t-30 -18q-6 -3 -13.5 -4t-22.5 -2q-30 -1 -49 5.5t-32 20.5q-9 10 -11.5 21t-2.5 39q0 21 1 27.5t4 14.5q6 13 19 22.5t31 14.5q11 3 32.5 3 t33.5 -3zM839 378q-3 -7 -23 -46t-45 -87l-59 -117h-37q-15 0 -26 0.5t-11 1.5l6.5 39t14.5 94l22 131h167l-9 -16v0zM322 374q20 -6 32.5 -18.5t15.5 -28.5q1 -5 1.5 -16t0.5 -24q-1 -19 -2 -25t-4 -13q-11 -20 -35 -30t-57 -8q-28 2 -47 12t-27 28q-3 7 -4 13.5t-1 30.5 q0 23 0.5 30t3.5 13q7 15 22.5 25t35.5 14q14 3 33 2t32 -5v0z" />
</svg>
