<?xml version="1.0" standalone="no"?>
<!DOCTYPE svg PUBLIC "-//W3C//DTD SVG 1.1//EN" "http://www.w3.org/Graphics/SVG/1.1/DTD/svg11.dtd" >
<svg xmlns="http://www.w3.org/2000/svg" xmlns:xlink="http://www.w3.org/1999/xlink" version="1.1" width="64" heigth="64" viewBox="0 -64 946 1024" transform="scale(1,-1)">
<path d="M111 167h64q27 0 49 16.5t22 53.5v468q0 48 -19 59t-68 11h-44v86h719v-311h-84q0 56 -7 97.5t-23 71.5q-17 34 -54.5 45t-100.5 11h-171v-248h33q73 0 97.5 28.5t23.5 125.5h75v-402h-75q-5 97 -25 136t-111 38h-20v-216q0 -47 21.5 -58.5t70.5 -11.5h46v-85h-419v85v0z" />
</svg>
