<?xml version="1.0" standalone="no"?>
<!DOCTYPE svg PUBLIC "-//W3C//DTD SVG 1.1//EN" "http://www.w3.org/Graphics/SVG/1.1/DTD/svg11.dtd" >
<svg xmlns="http://www.w3.org/2000/svg" xmlns:xlink="http://www.w3.org/1999/xlink" version="1.1" width="64" heigth="64" viewBox="0 -64 1036 1024" transform="scale(1,-1)">
<path d="M190 774h359l-32 -140h-196l-29 -117h161l-38 -141h-154l-67 -254h-172l168 652v0zM682 733l-26 -81h-63l-23 -99h60l-19 -73h-59l-26 -102h65l-18 -74h94l21 79h96l-17 -83h91l25 89h63l21 94h-60l18 79h63l26 92h-67l15 81h-90l-19 -83h-108l21 81h-84v0zM727 560h103 l-21 -82h-103z" />
</svg>
