<?xml version="1.0" standalone="no"?>
<!DOCTYPE svg PUBLIC "-//W3C//DTD SVG 1.1//EN" "http://www.w3.org/Graphics/SVG/1.1/DTD/svg11.dtd" >
<svg xmlns="http://www.w3.org/2000/svg" xmlns:xlink="http://www.w3.org/1999/xlink" version="1.1" width="64" heigth="64" viewBox="0 -64 1024 1024" transform="scale(1,-1)">
<path d="M75 524l14 18h185l-12 -18h-187v0zM242 478l6 19l-233 -1l-15 -18h242zM236 432l1 19h-106l-10 -19h115v0zM914 287q-38 -21 -81 -27q-44 -6 -83 5t-70 38q-31 28 -45 74q-17 -33 -43 -58.5t-59 -41.5q-38 -18 -80 -19q-43 -1 -80 14.5t-64 48.5t-34 82q-4 48 10 86 t37.5 66.5t52.5 46.5q28 18 50 25q72 23 136 -2t88 -90l-103 -27q-8 22 -45 33t-72 -14q-54 -33 -51.5 -97t68.5 -76q34 -5 57.5 10t40.5 41h-112l36 77h168q27 77 87 115q60 37 122.5 37.5t114.5 -35.5q51 -36 62 -105q7 -49 -14.5 -108.5t-93.5 -98.5v0zM821 541 q-58 -12 -76 -54t-9 -75q9 -35 43.5 -52.5t81.5 4.5q37 17 52 51q15 33 8.5 64t-32.5 51q-25 20 -68 11v0z" />
</svg>
