<?xml version="1.0" standalone="no"?>
<!DOCTYPE svg PUBLIC "-//W3C//DTD SVG 1.1//EN" "http://www.w3.org/Graphics/SVG/1.1/DTD/svg11.dtd" >
<svg xmlns="http://www.w3.org/2000/svg" xmlns:xlink="http://www.w3.org/1999/xlink" version="1.1" width="64" heigth="64" viewBox="0 -64 1024 1024" transform="scale(1,-1)">
<path d="M1023 543l-353 51l-2 4q4 18 6.5 36.5t3.5 37.5q1 33 -3 64t-24 52q-7 7 -20.5 14.5t-35.5 7.5q-6 0 -13.5 -1t-15.5 -3l-54 112l-141 -289q-6 -8 -12.5 -17t-13.5 -19l-344 -50l256 -252l-61 -356l214 114q6 -3 11 -4.5t11 -1.5t27 4.5t75 19.5q8 2 15 4.5t14 4.5 l265 -141l-60 356l255 252v0zM522 108v0q-32 -9 -58 -15.5t-32 -6.5q-9 0 -48.5 55.5t-33.5 60.5q1 1 24.5 9t54.5 18q124 41 171 79t47 98v56v0v0l-25 -41q-37 -60 -85.5 -91.5t-101.5 -31.5h-6t-6 1q-9 0 -18 1.5t-18 4.5q-39 10 -60.5 40t-21.5 74q0 28 32 83t75.5 111 t88.5 100q45 45 72 51q3 1 5.5 1.5t5.5 0.5q0 1 0.5 1h1.5q2 0 4.5 0.5t4.5 0.5q25 0 33.5 -22t7.5 -73q0 -2 -0.5 -4t-0.5 -4v1q-3 -49 -18 -94q-15 -44 -38 -77.5t-50 -53.5q-28 -20 -56 -20q-8 0 -16.5 2t-16.5 6q-18 10 -22 23.5t0 50.5q5 42 32.5 93t45.5 51 q16 0 18 -29.5t-12 -54.5q-16 -29 -18 -60.5t12 -40.5q2 -1 4.5 -1.5t4.5 -0.5v0v0v0v0q15 0 32 23q18 24 33.5 59t25.5 77t10 78q0 23 -6.5 34t-18.5 11v0v0v0v0q-15 0 -39 -16.5t-56 -49.5q-40 -41 -68 -82q-27 -40 -41.5 -78t-14.5 -72q-1 -34 14 -62t31 -38.5t49 -11.5 h5h5v0v0q45 0 90.5 46.5t63.5 108.5q8 31 17.5 47.5t15.5 16.5q4 0 6 -6t2 -19q0 -11 8 -42t20 -64q49 -142 15 -206t-182 -106v0z" />
</svg>
