<?xml version="1.0" standalone="no"?>
<!DOCTYPE svg PUBLIC "-//W3C//DTD SVG 1.1//EN" "http://www.w3.org/Graphics/SVG/1.1/DTD/svg11.dtd" >
<svg xmlns="http://www.w3.org/2000/svg" xmlns:xlink="http://www.w3.org/1999/xlink" version="1.1" width="64" heigth="64" viewBox="0 -64 1024 1024" transform="scale(1,-1)">
<path d="M415 808q98 -30 137 -66t74 -125q-7 108 -55 154.5t-156 36.5zM233 580q64 -19 128.5 -53t92.5 -157q11 153 -52.5 183t-168.5 27zM291 710q96 -20 158.5 -61.5t98.5 -165.5q4 80 -14 127q-19 46 -54 69.5t-84 28.5t-105 2zM458 960q262 -171 274 -273 q11 -102 -66 -195.5t-162 -209.5t-15 -314l110 -32q-114 154 -35 277q78 122 156.5 238t60.5 237q-17 121 -323 272v0z" />
</svg>
