<svg xmlns="http://www.w3.org/2000/svg" version="1.1" icon="this_is_a_hook" viewBox="0 -64 912 1024" transform="scale(1,-1)">
<title>JavaScript</title>
<path d="M874 723q11 -4 20.5 -16.5t9.5 -24.5v-468q-7 -16 -15.5 -24.5t-19.5 -16.5q-2 -2 -61 -38q-58 -36 -131 -78.5t-140 -77.5t-86 -35q-35 0 -85.5 35.5t-77.5 50.5q15 8 34 19.5t27 11.5q11 0 45.5 -23t61.5 -38l392 229v438l-397 229l-387 -229v-438q4 -4 66 -43t81 -39 q20 0 35 9t27 32v438q3 4 5.5 7t14.5 3h36l5 -458q-12 -50 -47 -71t-65 -21q-23 0 -57 14q-35 13 -68 32t-58 40q-26 21 -31 37v473q3 8 8.5 20.5t16.5 20.5q0 2 60 38q59 36 134 78.5t144 77.5q68 35 85 35q11 0 64 -27q52 -27 118 -64.5t132 -75.5q66 -39 104 -62v0z M741 524l-5 -15h-51q-27 65 -58 71t-69 6q-23 0 -62.5 -4.5t-39.5 -46.5q0 -35 47 -43t103.5 -16.5t103.5 -29.5q47 -20 47 -80q0 -80 -67 -103.5t-117 -23.5q-65 0 -132 26t-67 107q8 7 15.5 8.5t15.5 1.5q31 0 27 -10.5t19 -40.5q27 -31 58.5 -33.5t58.5 -2.5q38 0 80 13 t42 58q0 37 -47 43q-47 7 -103 12.5t-103 25.5q-47 19 -47 83q0 72 59 94.5t109 22.5t113 -23t70 -100v0z" />
</svg>
