<svg xmlns="http://www.w3.org/2000/svg" version="1.1" icon="this_is_a_hook" viewBox="0 -88 1024 1024" transform="scale(1,-1)">
<title>Java</title>
<path d="M388 522q-7 16 -9.5 33.5t2.5 33.5q6 17 17 31t23 27q34 34 73 62t72 62q18 19 32 41.5t19 48.5q4 19 3 38.5t-5 38.5q17 -20 23 -47t1 -52q-5 -29 -20 -54.5t-34 -47.5q-15 -18 -32 -34t-35 -30q-21 -17 -40.5 -36t-32.5 -43q-12 -20 -14 -42.5t5 -43.5q13 -36 37 -66 t40 -64q-17 16 -34.5 32t-33.5 33q-16 18 -31.5 37.5t-25.5 41.5v0zM515 560q-3 -30 9.5 -57t31.5 -50q9 -9 15.5 -21.5t7.5 -25.5q0 -19 -9 -35.5t-23 -28.5q3 0 5.5 2.5t5.5 3.5q20 13 38 29.5t28 39.5q6 15 5 31.5t-10 30.5q-10 17 -22 32.5t-19 33.5q-5 10 -6 21t3 22 q4 14 13.5 26t19.5 22q30 28 64 49.5t68 43.5q-43 -13 -84.5 -30.5t-77.5 -44.5q-23 -17 -41.5 -41t-21.5 -53zM787 373q20 -2 37.5 -15.5t21.5 -33.5q3 -18 -4 -35t-18 -30q-18 -22 -41.5 -38t-47.5 -29q-3 -2 -5 -4l-4 -4q33 9 64.5 22t57.5 34q14 12 25.5 28t14.5 35 q3 17 -3.5 33t-18.5 27q-15 13 -35 18.5t-39 2.5q-12 -1 -23.5 -4.5t-19.5 -13.5q10 2 19 4.5t19 2.5zM246 301q25 -6 50 -8.5t50 -4.5q22 -2 44.5 -2.5t45.5 0.5q58 1 116.5 5.5t115.5 17.5q5 1 11 2.5t11 5.5q9 6 19.5 11t20.5 10q-47 -8 -93.5 -14t-93.5 -9 q-48 -3 -95.5 -4t-95.5 2q-14 1 -27.5 3t-26.5 7q-3 1 -6 3.5t-2 6.5q3 5 8 8l10 6q21 9 43 15.5t44 12.5q-38 1 -75 -8t-71 -23q-8 -4 -16 -7.5t-14 -10.5q-2 -2 -2 -6t3 -6q5 -5 12 -8t14 -5v0zM650 233q-33 -6 -66 -11t-66 -6q-36 -3 -72 -1.5t-72 5.5q-7 1 -14 2.5 t-13 4.5q-3 2 -5.5 5t-2.5 7q0 6 4.5 10.5t7.5 9.5q-11 -4 -22.5 -9t-20.5 -13q-4 -3 -7.5 -7.5t-2.5 -10.5q2 -7 7.5 -11t10.5 -7q14 -7 29.5 -11t30.5 -6q38 -7 77 -7.5t77 2.5q41 3 81 10t80 18q-11 5 -21.5 11.5t-19.5 14.5v0zM376 147q-10 -3 -20.5 -7t-18.5 -11 q-5 -4 -7.5 -9t-0.5 -11q3 -6 8.5 -10.5t11.5 -8.5q17 -9 34.5 -13.5t35.5 -7.5q40 -7 81 -6t81 8q23 4 46.5 11t45.5 16q-14 6 -28 13t-28 15q-23 -4 -46.5 -8t-47.5 -5q-32 -3 -63.5 -1t-63.5 6q-7 2 -15.5 4t-13.5 8q-2 6 2 10l7 7v0zM717 -13q26 5 52 12t50 19 q7 5 14.5 10t10.5 14q1 9 -5.5 14t-13.5 8q4 -4 6 -10t-2 -11q-7 -9 -17 -13.5t-20 -7.5q-31 -9 -63 -13.5t-64 -7.5q-42 -4 -85 -6q-42 -3 -84.5 -3.5t-84.5 1.5q-43 1 -85 5q-28 3 -56.5 7t-55.5 14q-5 2 -10 4.5t-5 8.5q2 5 6 8t9 6q19 10 40.5 15.5t42.5 6.5 q-6 4 -13.5 4.5t-14.5 0.5q-18 0 -35.5 -4.5t-35.5 -10.5q-14 -5 -28.5 -11.5t-26.5 -17.5q-5 -4 -7.5 -11t1.5 -13q8 -8 18.5 -11t20.5 -5q58 -10 116 -16t116 -8q78 -2 155.5 2.5t153.5 19.5zM819 -27q-35 -11 -71.5 -18t-72.5 -12q-62 -7 -125 -10t-126 -1q-39 2 -77 5 t-76 9q9 -6 19.5 -8.5t20.5 -5.5q42 -9 85.5 -12t86.5 -4q63 -1 126 2t126 13q29 5 58.5 12.5t55.5 21.5q14 7 26 18.5t14 27.5q-14 -15 -32.5 -23t-37.5 -15v0z" />
</svg>
