<?xml version="1.0" standalone="no"?>
<!DOCTYPE svg PUBLIC "-//W3C//DTD SVG 1.1//EN" "http://www.w3.org/Graphics/SVG/1.1/DTD/svg11.dtd" >
<svg xmlns="http://www.w3.org/2000/svg" xmlns:xlink="http://www.w3.org/1999/xlink" version="1.1" width="64" heigth="64" viewBox="0 -64 1024 1024" transform="scale(1,-1)">
<path d="M833 735v0q0 19 -14.5 34.5t-35.5 15.5q-15 0 -30 -10.5t-19 -31.5v-16q0 -1 1 -4.5t1 -5.5q7 -15 20.5 -23.5t26.5 -8.5q18 0 34 14t16 36v0zM624 233v434l-86 -24v-410h86v0zM203 612v0q0 20 -14 34.5t-35 14.5q-15 0 -30.5 -10t-18.5 -32v-15q0 -9 10.5 -22.5 t21.5 -16.5q4 -1 9.5 -2t7.5 -1q20 0 34.5 14.5t14.5 35.5v0zM760 612v0q0 20 -14 34.5t-35 14.5q-22 0 -35.5 -14.5t-13.5 -34.5q0 -21 13.5 -36t35.5 -15q20 0 34.5 14.5t14.5 36.5zM905 612v0q0 20 -15 34.5t-35 14.5q-22 0 -35.5 -14.5t-13.5 -34.5q0 -21 13.5 -36 t35.5 -15q19 0 34.5 14.5t15.5 36.5zM199 226v307l-89 -24v-339q-1 -1 -3 -12.5t-12 -11.5t-19.5 15t-19.5 19q-5 2 -9 2h-7q-12 0 -26 -6t-14 -25q0 -28 33 -34t44 -6q49 0 85 20t37 95v0zM748 233v300l-86 -24v-276h86zM933 531v0q-7 0 -16.5 0.5t-11.5 0.5q-21 0 -44 -4 t-43 -15q-20 -9 -30 -22.5t-10 -28.5q0 -19 12 -28t29 -9q52 0 38.5 38t37.5 38q17 0 28.5 -10t13.5 -38v-32q-32 -11 -97.5 -33.5t-65.5 -84.5q0 -40 27.5 -57.5t58.5 -17.5q20 0 36 5t37 23h2.5h1.5v-23h87v226q0 2 -1.5 6.5t-1.5 8.5q-9 33 -38 44t-50 13v0zM322 525 v-208q1 -19 15.5 -29t26.5 -10q13 0 26.5 11.5t23.5 25.5v210h87v-292h-87v26l-1 2q-21 -17 -40 -25t-38 -8q-23 0 -48.5 12t-42.5 41q-2 5 -5 14t-3 14v216h86v0zM936 300q-13 -8 -23.5 -15.5t-22.5 -7.5q-16 0 -22 16t-6 24q0 25 29.5 43t44.5 23v-83v0z" />
</svg>
