<svg xmlns="http://www.w3.org/2000/svg" version="1.1" icon="this_is_a_hook" viewBox="0 -64 1024 1024" transform="scale(1,-1)">
<title>? Calculus</title>
<path d="M77 893h215l422 -890h-212l-146 321l-138 -321h-206l244 527zM1012 128q0 -52 -36.5 -88.5t-88.5 -36.5t-89 36.5t-37 88.5t37 89t89 37t88.5 -37t36.5 -89zM77 894v-1l178 -363l-244 -527h208l137 320l146 -320h213l-422 890zM78 893l214 -1l421 -888h-210l-147 321 l-138 -321h-205l243 526zM887 254q-53 0 -89.5 -37t-36.5 -89t36.5 -89t89.5 -37q52 0 89 37t37 89t-37 89t-89 37zM887 253q51 0 88 -36.5t37 -88.5t-37 -88.5t-88 -36.5q-52 0 -88.5 36.5t-36.5 88.5t36.5 88.5t88.5 36.5z" />
</svg>
