<svg xmlns="http://www.w3.org/2000/svg" version="1.1" icon="this_is_a_hook" viewBox="0 -64 1024 1024" transform="scale(1,-1)">
<title>Lisp</title>
<path d="M646 501h-155q-55 0 -55.5 -53.5t55.5 -53.5q77 -2 117.5 -48t40.5 -109q0 -66 -43 -111t-104 -45l-342 -3q-60 1 -107.5 43.5t-51.5 120.5l1 368q0 58 52.5 58t52.5 -59l2 -355q0 -38 21 -55t51 -17h304q54 0 54.5 53t-55.5 53q-72 0 -114.5 49.5t-42.5 116.5 q-1 66 46 111.5t108 45.5l165 2q51 0 52 -56t-52 -56v0zM869 776h-66h-152.5h-175.5h-132q-87 0 -132.5 -57t-45.5 -115q0 -30 1 -84q0 -53 0.5 -105t0.5 -90v-38q0 -54 52.5 -54.5t52.5 54.5v311q0 28 17.5 48t56.5 20h525q54 0 53 -53.5t-53 -53.5q-70 -1 -115.5 -44.5 t-45.5 -92.5l-2 -187q0 -55 52.5 -53t52.5 57l1 144q0 33 15.5 51t50.5 18q47 0 95 45t48 124q1 57 -38.5 105.5t-115.5 49.5v0z" />
</svg>
