<?xml version="1.0" standalone="no"?>
<!DOCTYPE svg PUBLIC "-//W3C//DTD SVG 1.1//EN" "http://www.w3.org/Graphics/SVG/1.1/DTD/svg11.dtd" >
<svg xmlns="http://www.w3.org/2000/svg" xmlns:xlink="http://www.w3.org/1999/xlink" version="1.1" width="64" heigth="64" viewBox="0 -106 1024 1068" transform="scale(1,-1)">
<path d="M791 787q0 47 33.5 80t79.5 33q47 0 80 -33t33 -80t-33 -80t-80 -33q-46 0 -79.5 33t-33.5 80zM727 293l-32 -5q-18 -2 -26.5 -9.5t-8.5 -19.5q0 -15 8 -23t24 -8q17 0 32 8t21 20q2 3 2 5.5v8.5v9l1 21v0q-1 0 -1.5 -0.5t-1.5 -0.5q-2 -2 -6.5 -3.5t-11.5 -2.5zM519 787 q79 0 150 -31q70 -30 122.5 -82.5t82.5 -122.5t30 -150t-30 -150q-30 -71 -82.5 -123t-122.5 -83q-71 -30 -150 -30q-80 0 -151 30q-70 31 -122.5 83t-82.5 123q-30 70 -30 150t30 150t82.5 122.5t122.5 82.5q71 31 151 31zM416 238h-127v219h-34v-249h161v30zM799 230 q-3 0 -5.5 -0.5t-4.5 -0.5q-5 0 -7.5 2.5t-2.5 8.5v104q0 24 -18 37.5t-51 13.5q-35 0 -53.5 -15t-19.5 -46h28q3 19 13 27t29 8q21 0 31.5 -7.5t10.5 -22.5q0 -14 -7.5 -18t-45.5 -7l-18 -3t-13 -3q-18 -5 -27.5 -19t-9.5 -33q0 -25 16 -39t44 -14q18 0 31.5 6.5t30.5 22.5 q1 -14 8.5 -21t20.5 -7q6 0 9.5 1l10.5 3v22v0zM565 561q0 -47 33.5 -80t79.5 -33q47 0 80 33t33 80t-33 80t-80 33q-46 0 -79.5 -33t-33.5 -80zM513 229q-19 0 -28 9.5t-9 29.5v122h-31v-136q0 -22 17 -36.5t43 -14.5q20 0 34 7.5t24 23.5v-26h29v182h-31v-107 q0 -7 -3.5 -17.5t-7.5 -17.5q-6 -9 -16 -14t-21 -5zM67 529l34 -12l-4 -11l-96 31l4 11l9 -3q0 1 -0.5 1t-0.5 1q-4 7 -5 11.5t2 11.5q4 13 16 17.5t28 -0.5q17 -5 25 -17t3 -26q-2 -6 -5.5 -9.5t-9.5 -5.5zM72 547q3 9 -2.5 16.5t-18.5 11.5t-21 1t-11 -12t3 -16t19 -12 q12 -3 20 -0.5t11 11.5v0zM40 644q7 13 21 16.5t29 -3.5q15 -8 20.5 -21.5t-1.5 -26.5t-21 -16.5t-29 3.5q-15 8 -20 21t1 27zM65 608q11 -6 20.5 -4.5t13.5 10.5q5 8 0.5 16.5t-15.5 14.5t-20.5 4.5t-13.5 -10.5t0 -17.5t15 -13.5zM142 668l-36 46l54 -23l7 11l-45 60 l-7 -10l36 -46l-54 23l-8 -11l37 -45l-54 23l-8 -11l70 -27l8 10v0zM158 744q-12 14 -12.5 28t11.5 25q11 10 24.5 7.5t27.5 -17.5l-39 -36q8 -8 16 -9t15 5q5 6 6.5 12.5t-2.5 11.5l10 8q2 -2 3 -6t1 -9q1 -7 -2 -13t-9 -11q-4 -4 -8 -6.5t-8 -2.5q-9 -2 -17.5 1.5 t-16.5 11.5v0zM163 759l30 27q-8 7 -15.5 7.5t-13.5 -5.5q-7 -5 -7 -13.5t6 -15.5v0zM251 777l-25 35q-5 7 -3.5 14.5t8.5 11.5q0 1 1 1.5t2 0.5l-7 11l-3 -1.5l-1 -0.5q-5 -3 -6.5 -9t-1.5 -14l-7 10l-9 -7l42 -59l10 7v0zM254 823q-9 16 -5.5 29.5t17.5 21.5 q13 7 25.5 1.5t21.5 -24.5l-46 -25q6 -10 13 -13t16 2q7 4 9.5 10t0.5 12l11 6q1 -4 1.5 -8t-0.5 -8q-1 -7 -5 -12t-12 -9q-5 -3 -9.5 -4t-8.5 -1q-9 0 -16.5 6t-12.5 16v0zM262 835l35 19q-5 9 -12 11.5t-15 -1.5t-10 -12.5t2 -16.5zM321 861q-6 16 -1.5 28t17.5 17 q7 2 13 1t11 -6l1 1l-13 35l12 4l33 -94l-11 -4l-3 9q-2 -7 -5.5 -11.5t-10.5 -6.5q-14 -5 -25.5 2.5t-17.5 24.5v0zM333 865q5 -13 12 -18.5t16 -2.5q5 2 8 5.5t4 8.5q1 4 0.5 7.5t-2.5 8.5q-5 15 -12 20t-17 2q-9 -3 -11 -11t2 -20zM440 857l-11 99l12 1l4 -36l1 2 q5 6 9 8.5t10 3.5q14 1 23 -8t11 -25q2 -19 -5.5 -30.5t-21.5 -13.5q-7 -1 -12 1t-10 8l1 -9l-11 -1v0zM448 892q1 -12 7 -18t15 -5t13.5 9t3.5 21q-2 13 -7.5 19.5t-15.5 5.5v-1q-10 -1 -14 -9t-2 -22v0zM529 854l-2 -3q-2 -4 -3.5 -5.5t-5.5 -1.5q-2 0 -3.5 0.5t-3.5 1.5 l-1 -11l4.5 -1.5t3.5 -0.5t4.5 0.5t4.5 0.5q4 2 7.5 7t8.5 16q1 3 2 5.5t2 4.5q2 4 3 6.5t1 3.5l24 56l-14 1l-22 -59l-17 61h-14l24 -75q-1 -3 -1.5 -4l-1.5 -3v0zM1011 430l11 1q0 12 -1.5 23.5t-3.5 23.5l-11 -2q2 -11 3 -22.5t2 -23.5zM686 877q-11 4 -22 7.5t-23 6.5 l-3 -12q12 -2 23 -5.5t21 -7.5zM771 838q-11 6 -21 11.5t-21 10.5l-4 -11l20 -10t20 -11zM103 114q7 -9 14 -18.5t14 -18.5l9 8q-7 8 -14 17.5t-13 18.5zM837 24l8 -8q9 7 17.5 15t16.5 16l-8 9q-8 -9 -16.5 -16.5t-17.5 -15.5zM901 90l9 -8q8 9 15 18.5t13 19.5l-10 6 q-6 -9 -13 -18l-14 -18v0zM977 612q-5 10 -10.5 20.5t-10.5 20.5l-10 -6q5 -9 10.5 -19.5t10.5 -20.5l10 5v0zM765 -26l-3 -2l6 -10l3 2q9 5 18.5 11t18.5 12l-7 10l-18 -12t-18 -11v0zM988 250l11 -4q4 11 7 22.5t5 22.5l-11 3l-6 -22zM679 -66l4 -10q11 3 22 7.5t21 9.5 l-4 10q-11 -4 -21.5 -8.5t-21.5 -8.5v0zM1011 385q0 -12 -1 -23.5t-2 -22.5l11 -2q2 12 3 23.5t1 23.5zM25 377h-11q0 -12 1 -23.5t3 -23.5l11 2q-1 11 -2 22.5t-2 22.5zM952 166l10 -6q6 10 11 21t10 21l-11 5q-5 -11 -10 -21zM1008 523q-3 12 -6 23t-7 22l-11 -4 q4 -10 7 -21l6 -22l11 2v0zM163 43q8 -9 17 -16.5t18 -15.5l7 9q-9 7 -17.5 15t-16.5 16l-8 -8v0zM590 -87l2 -12q11 2 23 4.5t23 4.5l-3 12q-11 -3 -22 -5.5t-23 -3.5v0zM26 284q3 -11 6.5 -22.5t7.5 -22.5l10 4q-3 11 -6.5 22t-5.5 22l-12 -3v0zM30 469l-11 1 q-2 -11 -3 -23t-2 -23l12 -1q0 11 1.5 22.5t2.5 23.5v0zM57 196q5 -11 10 -21t11 -21l10 6q-5 10 -10.5 20.5t-9.5 20.5zM499 -92v-12h10h10h13.5t12.5 1v11h-23.5h-22.5v0zM406 -91q11 -3 22.5 -5t23.5 -3l1 11q-11 2 -22.5 4t-22.5 4l-2 -11v0zM317 -62q11 -5 22 -9l22 -8 l3 11q-10 4 -21 8t-21 9l-5 -11v0zM235 -17q10 -6 20 -12.5t20 -11.5l6 10q-10 5 -20 11t-19 13z" />
</svg>
