<svg xmlns="http://www.w3.org/2000/svg" version="1.1" icon="this_is_a_hook" viewBox="0 -44 1024 1026" transform="scale(1,-1)">
<title>NASM</title>
<path d="M1023 864q-9 -55 -59.5 -77.5t-95.5 5.5l-65 -65q85 -94 108 -212q23 -117 -9 -226.5t-115 -195.5q-83 -87 -208 -120q-128 -34 -245 2q-117 37 -199 119.5t-118 199.5q-35 118 -1 246q34 125 121 207t196 114t226 8q117 -23 211 -109l65 65q-25 39 -11 85t60 64 q55 22 101.5 -15t37.5 -95v0zM677 339h34q3 0 4.5 1.5t1.5 4.5v95q9 5 17 7.5t14 1.5q7 -1 10.5 -6.5t2.5 -16.5v-81q0 -2 1 -4t6 -2h34q3 0 4.5 1t1.5 5v88q0 19 -4.5 35.5t-22.5 21.5q-15 5 -33.5 0.5t-36.5 -18.5q-5 10 -14.5 15t-21.5 6q-12 0 -24.5 -4t-24.5 -14v8 q0 3 -1 5t-6 2h-33q-3 0 -4.5 -1.5t-1.5 -5.5v-138q0 -3 1.5 -4.5t4.5 -1.5h33q5 0 6 1.5t1 4.5v95q25 12 35 8t9 -21v-82q1 -3 2 -4.5t5 -1.5v0zM556 473v5t-2 4q-13 8 -40.5 10t-46.5 -4q-17 -7 -24 -19.5t-7 -24.5q0 -25 16.5 -34.5t43.5 -12.5q9 -1 13.5 -3.5t3.5 -9.5 q1 -13 -22.5 -11t-42.5 4q-7 1 -8 -0.5t-2 -4.5l-3 -15q-1 -6 0.5 -8.5t9.5 -5.5q34 -9 66 -5.5t44 25.5q8 13 5.5 32.5t-17.5 27.5q-10 6 -20.5 8t-19.5 4q-10 1 -15.5 3t-5.5 7q1 8 6 9.5t21 0.5q16 0 27 -2t14 -1q2 2 3 8.5t3 12.5v0zM394 479q-13 12 -42.5 13.5 t-62.5 -7.5q-6 -2 -8.5 -4t-1.5 -7q2 -8 3 -14.5t3 -7.5q8 -1 27 2t36 0q7 -2 10 -6t3 -16h-35q-32 0 -46 -13t-13 -38q0 -18 8 -31t33 -14q15 0 30 5.5t27 16.5q1 -5 3 -8.5t6 -6.5q4 -4 14 -5.5t21 0.5q7 1 11.5 3t3.5 6v20q0 3 -1 4t-5 1q-8 1 -9.5 3.5t-1.5 11.5v48 q-1 14 -3 25.5t-10 18.5v0zM321 372q-4 1 -5.5 3.5t-1.5 8.5q0 10 4.5 14t13.5 5h28v-21q-10 -6 -20.5 -9t-18.5 -1v0zM201 345q0 -3 1.5 -4.5t4.5 -1.5h34q2 0 4 0.5t2 5.5v87q1 20 -2.5 32t-11.5 19q-13 12 -36.5 9.5t-44.5 -17.5v8q0 4 -1.5 5.5t-4.5 1.5h-34 q-3 0 -4.5 -2t-1.5 -5v-138q0 -2 0.5 -4t5.5 -2h34q3 0 4.5 1t1.5 5v95q19 8 34 8.5t15 -23.5v-80z" />
</svg>
