<svg xmlns="http://www.w3.org/2000/svg" version="1.1" icon="this_is_a_hook" viewBox="0 -64 1088 1024" transform="scale(1,-1)">
<title>Nim</title>
<path d="M620 791q44 -9 96.5 -22t78.5 -13q18 0 41.5 14.5t40.5 32.5q5 0 21 -22t38 -48.5t46 -48.5q25 -22 47 -22q18 0 28 7.5t19 16.5q-18 -27 -45.5 -89.5t-71.5 -97.5q-48 39 -104 64q-55 25 -112 39.5t-113 19.5q-55 5 -104 5q-43 0 -96 -4q-53 -3 -106.5 -16t-104.5 -39 t-90 -69q-35 17 -71.5 83t-45.5 92q44 -9 102.5 33.5t84.5 95.5q18 -9 42.5 -28t51.5 -19q17 0 74 8.5t101 26.5q18 0 35.5 23.5t34.5 23.5q26 0 45 -23.5t37 -23.5v0zM304 335q9 0 42 16q33 17 71 36.5t73 36.5q35 16 48 16q9 0 40 -18t67 -40t69 -41q33 -18 46 -18 q18 0 55 14q38 14 78.5 34.5t75.5 45.5t48 46q-8 -87 -60 -155q-51 -67 -122 -113t-151 -70t-146 -24q-79 0 -155 24q-77 24 -141.5 71t-112.5 117t-70 162q61 -70 122.5 -105t122.5 -35v0z" />
</svg>
