<svg xmlns="http://www.w3.org/2000/svg" version="1.1" icon="this_is_a_hook" viewBox="0 -64 1024 1024" transform="scale(1,-1)">
<title>Objective-C</title>
<path d="M1023 380q-5 -21 -13 -39t-19 -32t-24.5 -24.5t-29.5 -17.5q-16 -8 -36.5 -11.5t-45.5 -3.5q-30 0 -54.5 4.5t-43.5 13.5q-20 9 -36.5 24t-29.5 37q-14 23 -21 51t-7 63q0 46 12 81t37 60q24 25 58.5 37t79.5 12q35 0 62.5 -7t47.5 -21t35 -36t24 -51l-101 -22 q-2 8 -5 14t-6 10q-5 7 -10.5 12t-12.5 8q-7 4 -15 6t-16 2q-20 0 -35 -8t-25 -24q-8 -11 -12 -29.5t-4 -43.5q0 -30 5 -51.5t14 -32.5t22.5 -17t30.5 -6q16 0 28.5 4.5t20.5 14.5q9 9 15 22.5t10 30.5l100 -30v0zM223 525q4 -14 5.5 -29.5t1.5 -32.5q0 -20 -2 -37.5 t-7 -31.5t-11.5 -26t-13.5 -22q-8 -9 -17.5 -16t-20.5 -12q-10 -4 -21.5 -6.5t-23.5 -2.5q-14 0 -26.5 2.5t-22.5 7.5q-11 5 -20 12.5t-16 17.5q-6 10 -11.5 21.5t-8.5 25.5q-4 14 -5.5 30t-1.5 33q0 20 2.5 37t6.5 32q5 14 11.5 26t13.5 21q8 10 17.5 17t20.5 11 q10 5 21.5 7.5t23.5 2.5q14 0 26.5 -3t22.5 -8q11 -5 19.5 -12.5t15.5 -17.5q7 -9 12.5 -21t8.5 -26v0zM188 460q0 13 -1 25t-3 22q-2 11 -5 20.5t-7 17.5q-5 7 -10.5 13t-12.5 11q-7 4 -15.5 6t-18.5 2q-9 0 -17 -2t-15 -7q-7 -4 -12.5 -10.5t-10.5 -14.5q-4 -8 -7.5 -17 t-5.5 -20q-2 -10 -3 -21.5t-1 -22.5q0 -14 1 -25.5t3 -22.5t5 -20.5t8 -16.5q4 -8 9.5 -14t12.5 -10q7 -5 15.5 -7t17.5 -2q10 0 18 2.5t15 6.5q7 5 12.5 11t10.5 14q4 8 7.5 17t5.5 20q2 10 3 21.5t1 23.5v0zM452 431q0 -15 -2 -27.5t-6 -23.5t-9.5 -20.5t-12.5 -17.5 q-7 -7 -15.5 -13t-19.5 -10q-10 -5 -21.5 -7t-24.5 -2q-10 0 -20.5 1t-20.5 3q-11 2 -21.5 5t-20.5 7v306h40v-87l-2 -42q8 11 17 19t19 13q10 4 20 6.5t21 2.5q10 0 18.5 -2t16.5 -6q7 -4 13 -10t11 -13t9 -16t6 -20q3 -10 4 -21.5t1 -24.5v0zM412 429q0 9 -0.5 17t-2.5 16 q-1 7 -3 13.5t-5 11.5t-6.5 9.5t-7.5 7.5q-5 3 -10 4.5t-11 1.5q-4 0 -8 -0.5t-8 -2.5q-3 -1 -7 -3t-9 -5q-4 -2 -8 -6t-9 -8q-4 -5 -9 -10.5t-10 -12.5v-110q5 -2 11 -4t12 -3t11.5 -2t11.5 -1q7 0 13.5 1t12.5 4q6 2 11.5 5.5t9.5 8.5q5 5 9 11.5t6 15.5q3 8 4.5 18 t1.5 23v0zM460 507h112v-191q0 -16 -4 -28t-11 -20t-17.5 -12t-23.5 -4h-8t-8 1q-5 0 -9 1l-8 2q-5 1 -9 2t-8 3q-4 1 -7.5 2.5t-7.5 3.5v-37q7 -3 14 -5t15 -4l16 -2t17 -1q11 0 21.5 1.5t19.5 5.5q9 3 17 8t14 11t11 14t9 17q3 9 4.5 19.5t1.5 22.5v223h-151v-33v0z M610 626q-2 2 -4.5 4t-5.5 3t-6 1.5t-6 0.5q-4 0 -7 -0.5t-6 -1.5q-2 -1 -4.5 -3t-4.5 -4t-4 -4.5t-3 -5.5t-1.5 -6t-0.5 -6t0.5 -6t1.5 -6t3 -5.5t4 -4.5t4.5 -3.5t4.5 -2.5q3 -2 6 -2.5t7 -0.5q3 0 6 0.5t6 2.5q3 1 5.5 2.5t4.5 3.5t3.5 4.5t2.5 5.5l2 6t1 6t-1 6l-2 6 t-2.5 5.5t-3.5 4.5z" />
</svg>
