<?xml version="1.0" standalone="no"?>
<!DOCTYPE svg PUBLIC "-//W3C//DTD SVG 1.1//EN" "http://www.w3.org/Graphics/SVG/1.1/DTD/svg11.dtd" >
<svg xmlns="http://www.w3.org/2000/svg" xmlns:xlink="http://www.w3.org/1999/xlink" version="1.1" width="64" heigth="64" viewBox="0 -64 1024 1024" transform="scale(1,-1)">
<path d="M357 766q9 -7 16 -18.5t16 -20.5q20 -18 42.5 -38t50.5 -42q29 -22 56 -51.5t73 -29.5q38 0 60 39.5t28 65.5q5 13 12.5 25.5t16.5 23.5h10.5h8.5q6 0 43.5 -4.5t61.5 -10.5q9 -2 19 -5.5t15 -8.5q4 -2 9.5 -12.5t5.5 -19.5q0 -4 -1.5 -10.5t-1.5 -11.5q-9 2 -15 3.5 t-11 1.5q-4 0 -30.5 -7.5t-43.5 -17.5q-11 -3 -15.5 -20t-13.5 -26q-25 -27 -48 -53.5t-69 -41.5q-13 -4 -30.5 -8t-22.5 -4h-93q-2 -2 -4.5 -4t-2.5 -6q0 -5 2 -3t2 -2v-56l3 -5q2 -11 3 -22t4 -24q4 -11 13.5 -22.5t13.5 -23.5q4 -8 2.5 -19.5t-0.5 -22.5q4 -18 11 -38 l14 -40h22q5 4 9.5 5t9.5 2q8 2 17.5 5t14.5 3h102l1 2.5t4 2.5h88q26 -8 60.5 -16.5t39.5 -8.5h73v-9q-18 -37 -48 -59t-66 -22h-742q-38 0 -72.5 28t-41.5 62l-0.5 1.5t-2.5 1.5v78q33 -9 64 -19.5t61 -17.5l-0.5 -2.5t5.5 -2.5h82l2.5 1.5t2.5 3.5q26 2 59 17t58 15 q24 0 54 -10t49 -27q5 -3 18 -11t21 -13q3 -2 6 -6t8 -4h20v17q-11 9 -13 22.5t-9 24.5q-6 11 -14.5 20.5t-12.5 20.5q-7 20 -12 42.5t-12 40.5q-2 7 -5.5 15.5t-9.5 13.5q-9 11 -30 32.5t-36 21.5q-25 0 -43 -33.5t-20 -34.5q-11 -11 -22.5 -36.5t-16.5 -42.5 q-4 -10 -12.5 -20t-14.5 -21q-5 -7 -8 -19.5t-7 -21.5h-19v12q9 14 12.5 31.5t2.5 31.5q-6 18 10 30t14 26q7 15 12 37t27 36v8q-4 0 -9 2.5t-11 2.5q-18 3 -36 4.5t-34 4.5q-9 2 -19 3t-18 5q-3 0 -6.5 1.5t-5.5 3.5q-16 5 -34.5 18t-24.5 13q-14 0 -20 -12t-11 -27 q-8 -18 -21 -35t-21 -28v285q8 0 15 4t15 6q3 2 9.5 2.5t12.5 4.5q12 9 28.5 41t34.5 32q4 0 32 -15.5t34 -15.5h46q15 12 22 34t27 22q7 0 25.5 -9t20.5 -11v0zM567 174h-12t-10 2h11.5t10.5 -2z" />
</svg>
