<svg xmlns="http://www.w3.org/2000/svg" version="1.1" icon="this_is_a_hook" viewBox="0 -64 1024 1024" transform="scale(1,-1)">
<title>GNU Octave</title>
<path d="M791 809q-4 0 -10.5 -0.5t-9.5 -4.5q3 -4 20 -4.5t82 -0.5q8 0 17.5 -6.5t13.5 -14.5v-102q27 -39 49 -83q23 -44 39 -89.5t25 -90.5q10 -45 10 -85q0 -12 -3.5 -37.5t-7.5 -44.5q0 -8 -5 -19t-5 -22q0 -8 5 -12.5t5 -8.5q4 -15 4.5 -37.5t0.5 -33.5q0 -20 -3.5 -59.5 t-42.5 -43.5l-123 -5q4 -4 11 -4.5t15 -0.5q-46 -27 -104 -44t-101 -17q-61 0 -133 24q-72 25 -141.5 71t-130.5 110t-102 143l118 5q-4 4 -34 4.5t-176 0.5q-27 -8 -46.5 17t-19.5 44v205q7 16 11.5 34.5t24.5 22.5q26 7 73 6t55 -1q130 0 146.5 -20.5t16.5 -143.5 q0 -8 -0.5 -47.5t-4.5 -70.5q0 -8 -3.5 -15.5t-11.5 -15.5q44 -61 90 -106q46 -46 94 -75.5t98 -44.5q50 -14 102 -14q38 0 72 3.5t46 42.5v15v15q-4 12 5.5 39.5t40.5 27.5l128 5q-8 4 -19 4.5t-22 0.5q11 39 23.5 79t12.5 75q0 73 -23 139t-70 142q-15 -7 -35 -8.5 t-31 -1.5q-12 0 -42 2t-30 29v92q4 4 8.5 11t12.5 15q-4 4 -13 2.5t-13 2.5q-19 8 -37.5 18t-34.5 18q-30 15 -72 22.5t-76 7.5q-44 0 -90 -13t-85 -41t-66 -73q-28 -45 -36 -108h-158v20q15 85 51 143q35 57 83 92.5t105 51.5q56 15 114 15q38 0 85 -12q46 -12 92.5 -33 t89.5 -47q43 -27 76 -56v0zM883 727q0 -8 -0.5 -24t-4.5 -27h-97v102h46q46 0 51 -4.5t5 -46.5v0zM315 461q0 -119 -16 -131.5t-127 -12.5q-27 0 -77 3.5t-62 22.5v236q4 23 63.5 24t75.5 1q119 0 131 -14t12 -129v0zM1001 113q0 -8 -0.5 -33t-4.5 -44h-154v159h42.5h34.5 q65 0 73.5 -10.5t8.5 -71.5v0z" />
</svg>
