<?xml version="1.0" standalone="no"?>
<!DOCTYPE svg PUBLIC "-//W3C//DTD SVG 1.1//EN" "http://www.w3.org/Graphics/SVG/1.1/DTD/svg11.dtd" >
<svg xmlns="http://www.w3.org/2000/svg" xmlns:xlink="http://www.w3.org/1999/xlink" version="1.1" width="64" heigth="64" viewBox="0 -64 1024 1024" transform="scale(1,-1)">
<path d="M935 224q19 -52 4 -97t-69 -73q-52 -27 -108.5 -45t-113.5 -31q-36 -8 -72.5 -13.5t-72.5 -8.5q-34 -3 -65.5 4t-58.5 29q-22 18 -36 41.5t-18 51.5q-2 18 5 32.5t23 24.5q22 12 37 29.5t22 41.5q2 7 2.5 13t-1.5 13q-3 17 -3 33.5t5 32.5q9 25 26.5 42t40.5 27 q15 7 55.5 18t51.5 14q11 2 21 3t21 2q26 1 49 -6.5t43 -24.5q13 -10 22 -22.5t15 -27.5q4 -8 10 -14.5t13 -12.5q19 -13 39.5 -20.5t43.5 -7.5q26 1 43 -12t26 -36v0zM479 755q7 -10 10 -20.5t3 -21.5q-1 -10 -1.5 -19.5t-1.5 -18.5q-5 -33 11.5 -59.5t46.5 -32.5 q40 -8 74.5 1t61.5 42q15 17 21.5 36.5t2.5 42.5q-2 15 -7.5 29.5t-13.5 27.5q-18 28 -41.5 49t-54.5 34q-18 34 -42 60t-48 36q-4 -11 -2.5 -19.5t9.5 -16.5q11 -10 15.5 -23t5.5 -27q-10 -3 -20 -5t-19 -6q-17 -7 -24 -20t-2 -31q2 -10 6 -20t10 -18v0zM201 626 q5 -40 28.5 -68.5t63.5 -39.5q39 -10 72 -1.5t62 35.5q10 9 15 21.5t2 26.5q-2 9 -5 19t-8 18q-6 9 -13 17.5t-14 16.5q-12 14 -20 30t-6 36q-4 35 -25 50t-56 6q-5 -2 -10 -3l-10 -2q-9 13 -13.5 26t-2.5 28q1 11 -4 18t-14 12q-12 -18 -15.5 -54t4.5 -66 q-20 -29 -27.5 -60t-3.5 -66v0zM987 627l-6 8t-4 10q-4 27 -15.5 50t-26.5 45q-2 2 -5 4t-6 6q-6 -10 -8 -18.5t3 -18.5q5 -11 7 -22t-3 -24q-30 4 -48.5 -6.5t-28.5 -38.5q-10 -29 -27.5 -64t-30.5 -64q-12 -26 -4 -47.5t33 -37.5q32 -20 66 -22.5t70 13.5q25 11 41.5 29.5 t23.5 44.5q10 42 2.5 80.5t-33.5 72.5v0zM289 348q-8 8 -18 14.5t-20 12.5q-25 15 -61.5 38t-61.5 39q-19 12 -39.5 7.5t-41.5 -29.5q-7 6 -11 13.5t-5 16.5q-1 12 -8.5 19t-19.5 13q-1 -5 -2 -9.5t-1 -7.5q1 -25 5.5 -48.5t15.5 -45.5q2 -4 3.5 -9t1.5 -9q3 -24 10.5 -45.5 t20.5 -41.5q26 -39 61.5 -59t84.5 -14q34 4 59 21.5t40 48.5q11 22 8 40.5t-21 34.5v0z" />
</svg>
