<svg xmlns="http://www.w3.org/2000/svg" version="1.1" icon="this_is_a_hook" viewBox="0 -64 1024 1024" transform="scale(1,-1)">
<title>Perl</title>
<path d="M425 77q-4 -8 -18.5 -4.5t-33.5 9.5q-18 6 -68 31t-86 65q-36 41 -54 92.5t-16 102.5q1 52 15 80.5t38 61.5t75 74t72 53q21 13 45 32.5t38 36.5q13 18 20 34t6 40t0.5 43.5t0.5 27.5t0.5 19.5t8.5 8.5t8.5 -11t1.5 -17t-2 -40t-4 -66t-24.5 -63.5t-43.5 -49.5 q-20 -21 -67 -72.5t-69 -83.5q-23 -32 -33.5 -71t-8.5 -74q3 -36 14.5 -71.5t45.5 -72.5q33 -37 57 -56.5t41 -28.5q17 -8 31 -15t10 -15v0zM464 26q-5 -7 -13 -10.5t-9 -0.5q-1 2 5.5 5t12.5 10q5 6 5.5 14.5t4.5 9.5q4 0 2 -10.5t-8 -17.5v0zM484 103q-12 -14 -48 21 t-59 64q-24 28 -44 79t-21 97q-1 45 19 85t38 65q18 26 46.5 62.5t38.5 56.5q9 20 18 42t13 50q3 28 1.5 98.5l-1.5 70.5l0.5 28.5t7.5 23.5t9.5 -28.5t2.5 -48.5v-43v-64.5t-2 -65.5q-2 -32 -6 -46q-8 -30 -24.5 -61t-36.5 -60t-38.5 -80t-17.5 -88q1 -38 18 -89t34 -77 q16 -25 37 -54.5t15 -37.5v0zM515 4q-3 0 -2.5 8.5t0.5 21.5q0 12 -0.5 20.5t2.5 8.5t3 -8.5v-20.5v-21.5t-3 -8.5zM584 15q-1 -3 -8.5 0.5t-13.5 10.5t-7.5 17.5t1.5 10.5q4 0 4.5 -9t6.5 -15q6 -7 12.5 -9.5t4.5 -5.5v0zM652 77q-14 -6 -24.5 -9t-22.5 8 q-20 18 -39.5 23.5t-43.5 11.5q-7 2 -12 13.5t-7 16.5q-8 18 -14.5 37t-10.5 38q-12 46 -14 92q-2 45 2.5 91t14.5 91q10 46 21 91q10 38 16 76.5t7 78.5q0 21 -2.5 41.5t-4.5 41.5q-1 8 -2.5 21.5t9.5 -3.5q4 -7 10 -3t7 -3q1 -6 2 -38.5t3 -47.5q6 -37 41.5 -61t63.5 -41 q32 -20 68 -44q35 -23 66 -51.5t54 -62.5t29 -75q8 -53 -2 -103q-10 -49 -37 -91.5t-72 -78.5q-44 -35 -106 -60v0zM1024 448q0 147 -72 263q-72 115 -184.5 179.5t-248.5 69.5t-264 -69q-127 -74 -191 -194t-64 -249t64 -249t191 -194q128 -74 264 -69t248.5 69.5 t184.5 179.5q72 116 72 263v0z" />
</svg>
