<svg xmlns="http://www.w3.org/2000/svg" version="1.1" icon="this_is_a_hook" viewBox="0 -64 1024 1024" transform="scale(1,-1)">
<title>PHP</title>
<path d="M802 491q6 -7 7 -17.5t-2 -25.5t-8.5 -26.5t-14.5 -17.5q-9 -7 -22 -10.5t-31 -3.5h-36l22 113h41q16 0 27.5 -3t16.5 -9v0zM300 503h-41l-22 -113h36q18 0 31 3.5t22 10.5q9 6 14.5 17.5t8.5 26.5t2 25.5t-7 17.5q-5 6 -16.5 9t-27.5 3v0zM1023 427q0 -56 -40 -105 t-109.5 -85.5t-162.5 -57.5t-199 -21t-199 21t-162.5 57.5t-109.5 85.5t-40 105q0 55 40 104t109.5 85.5t162.5 57.5t199 21t199 -21t162.5 -57.5t109.5 -85.5t40 -104v0zM397 408q5 8 8 17t5 19q5 24 1.5 42.5t-15.5 32.5q-12 13 -30.5 20t-43.5 7h-113l-52 -270h58l14 72 h50q17 0 30.5 1.5t24.5 5.5q11 3 20.5 9t18.5 14q8 7 14 14.5t10 15.5v0zM604 348l24 125q4 19 1 33t-12 22q-9 9 -26 13.5t-42 4.5h-52l14 71h-58l-52 -269h58l30 154h47q11 0 18 -2t11 -5q3 -4 4 -11t-1 -17l-24 -119h60v0zM854 519q-12 13 -30.5 20t-43.5 7h-113 l-52 -270h58l14 72h50q17 0 30.5 1.5t24.5 5.5q11 3 20.5 9t18.5 14q8 7 14 14.5t10 15.5q5 8 8 17t5 19q5 24 1.5 42.5t-15.5 32.5z" />
</svg>
