<svg xmlns="http://www.w3.org/2000/svg" version="1.1" icon="this_is_a_hook" viewBox="0 -64 1382 1024" transform="scale(1,-1)">
<title>PowerShell</title>
<path d="M593 55h-98h-98h-98h-99q-50 0 -62.5 16t-0.5 65q19 83 38 165q19 83 38.5 165.5t38.5 165.5q19 82 37 165q10 45 34 65t72 20q98 -1 196 -1h196.5h196.5h197q49 0 61 -15.5t1 -65.5l-36 -162l-36 -162t-37 -163l-36 -162q-14 -60 -37.5 -78t-87.5 -18h-95h-94.5h-95.5 h-95v0zM705 487q-2 -19 -13.5 -26t-21.5 -14q-36 -27 -73 -54q-36 -27 -72 -53.5t-72 -52.5q-37 -27 -73 -53q-20 -15 -32.5 -32.5t7.5 -43.5q18 -24 38.5 -22.5t42.5 17.5l98 72q48 36 97 72t99 72q49 36 98 71q25 19 29 37.5t-19 43.5q-31 34 -62 67q-31 34 -61.5 68 t-61.5 68t-61 68q-22 24 -45.5 26t-47.5 -20q-25 -21 -21 -42.5t24 -42.5q44 -48 87.5 -96.5t86.5 -96.5q8 -8 15 -17t14 -16v0zM746 146v0v0q30 0 60 -0.5t59 1.5q24 1 35.5 16.5t11.5 37.5q0 19 -12 30t-30 12q-58 1 -116 1t-116 -1q-21 -1 -31.5 -15t-10.5 -35 q0 -22 11.5 -34t33.5 -13q26 -1 52.5 -0.5t52.5 0.5v0z" />
</svg>
