<svg xmlns="http://www.w3.org/2000/svg" version="1.1" icon="this_is_a_hook" viewBox="0 -64 1024 1024" transform="scale(1,-1)">
<title>Prolog</title>
<path d="M339 603q0 -6 -4 -10.5t-11 -4.5q-6 0 -10 4.5t-4 10.5t4 10.5t10 4.5q7 0 11 -4.5t4 -10.5zM346 674q-36 0 -61.5 -25.5t-25.5 -62.5q0 -36 25.5 -61.5t61.5 -25.5q37 0 62.5 25.5t25.5 61.5q0 37 -25.5 62.5t-62.5 25.5v0zM348 531q-21 0 -37 15.5t-16 37.5t16 37.5 t37 15.5q22 0 37.5 -15.5t15.5 -37.5t-15.5 -37.5t-37.5 -15.5zM725 588q7 0 11 4.5t4 10.5t-4 10.5t-11 4.5q-6 0 -10 -4.5t-4 -10.5t4 -10.5t10 -4.5zM753 495q36 0 61.5 26t25.5 62t-25.5 62t-61.5 26q-37 0 -62.5 -26t-25.5 -62t25.5 -62t62.5 -26v0zM750 636 q21 0 36.5 -15.5t15.5 -37.5t-15.5 -37.5t-36.5 -15.5q-22 0 -37.5 15.5t-15.5 37.5t15.5 37.5t37.5 15.5zM952 468q0 45 -9 88q-8 42 -24.5 81t-39.5 74q-24 35 -53 65q-11 33 -9.5 72.5t14.5 60.5q5 8 10.5 15t10.5 15q-49 8 -89.5 -5.5t-68.5 -48.5q-3 -4 -6.5 -7 t-6.5 -4q-39 16 -81.5 25t-87.5 9t-88 -9t-82 -25q-3 1 -6.5 3.5t-6.5 7.5q-28 35 -68.5 48.5t-89.5 5.5q5 -8 10.5 -15t9.5 -15q14 -21 15.5 -61.5t-10.5 -73.5q-29 -30 -52 -64q-23 -35 -39 -74t-24 -81q-9 -42 -9 -87q0 -42 7.5 -82t22.5 -77q3 -10 6.5 -20.5t6.5 -20.5 q3 -9 6 -18.5t6 -18.5q8 -27 12.5 -55.5t5.5 -56.5v-16v-15v-6v-5l89 81q12 -11 28 -21t36 -18q-20 -15 -32 -37t-12 -49q0 -22 9 -41.5t24 -34.5q-1 5 -2 10.5t-1 10.5q0 30 21 51.5t51 21.5t51.5 -21.5t21.5 -51.5q0 -6 -1.5 -12t-3.5 -12q17 14 27 35t10 44q0 14 -3 26 t-9 23q18 -2 37 -3t38 -1q13 0 25.5 0.5t25.5 1.5q-5 -11 -8 -22.5t-3 -24.5q0 -22 9 -41.5t24 -34.5q-1 5 -2 10.5t-1 10.5q0 30 21 51.5t51 21.5t51.5 -21.5t21.5 -51.5q0 -6 -1.5 -12t-3.5 -12q17 14 27 35t10 44q0 24 -10 44.5t-26 35.5q20 8 37.5 17t30.5 20l77 -71 v5.5v5.5v15.5v15.5q1 29 5.5 57t12.5 55q3 10 6 19t6 19t6.5 21t7.5 22v0q14 36 21 74.5t7 79.5v0zM123 337l-16 49l22 -20l34 12l-40 -41v0zM132 301l22 -20l33 12l-39 -41l-16 49v0zM185 375l21 -22l35 10l-43 -39l-13 51v0zM169 166l-16 49l22 -20l34 12zM224 236l-17 50 l22 -21l34 12l-39 -41v0zM261 360l20 -22l35 9l-42 -38l-13 51v0zM513 288q-6 9 -11.5 19.5t-11.5 20.5q-5 12 -11 23t-12 23q-11 21 -25 43.5t-20 46.5q-22 -18 -50.5 -28.5t-59.5 -10.5q-72 0 -123 51t-51 124q0 72 51 123t123 51q19 0 37 -4t35 -12q7 -3 14.5 -6.5 t13.5 -8.5q34 -23 54.5 -60.5t20.5 -81.5q0 -7 -0.5 -13t-1.5 -12q7 2 14 3t14 1q9 0 17 -1.5t15 -4.5q-1 7 -1.5 14t-0.5 14q0 12 1.5 22.5t4.5 21.5v0.5v1.5q1 3 2 5.5t1 4.5q1 2 1.5 4t1.5 4l0.5 1l0.5 1q20 48 63.5 78.5t98.5 30.5q72 0 123 -51t51 -123q0 -73 -51 -124 t-123 -51q-28 0 -52.5 8t-45.5 22q-4 3 -7.5 5.5t-7.5 5.5q-2 -13 -8 -24.5t-13 -23.5l-18 -34t-17 -34l-36 -65v0zM841 369l-13 -50l-42 38l34 -10l21 22v0zM710 342l35 -10l20 22l-12 -51l-43 39v0zM803 230l-40 42l34 -12l22 20l-16 -50v0zM857 160l-39 41l34 -12l22 20 l-17 -49v0zM878 246l-39 41l34 -12l22 20l-17 -49v0zM903 331l-39 41l34 -12l22 20l-17 -49v0zM513 563q-34 0 -58 -24t-24 -58q0 -27 15 -51t27 -47q5 -10 10 -19.5t10 -19.5q5 -9 9.5 -18t10.5 -18l31 57q7 15 15 29.5t16 29.5l13.5 27t6.5 30q0 34 -24 58t-58 24v0z" />
</svg>
