<svg xmlns="http://www.w3.org/2000/svg" version="1.1" icon="this_is_a_hook" viewBox="0 -64 1024 1024" transform="scale(1,-1)">
<title>Python</title>
<path d="M389 466h244q51 0 86.5 36.5t35.5 87.5v232q0 50 -36 84.5t-86 42.5q-31 5 -63.5 7.5t-63.5 2.5t-60.5 -2.5t-56.5 -7.5q-77 -14 -99 -44t-22 -83v-93h243v-31h-335q-53 0 -95.5 -31t-56.5 -92q-17 -70 -17.5 -122.5t17.5 -125.5q13 -54 44.5 -89t84.5 -35h84v112 q0 60 45 105.5t107 45.5v0zM374 791q-19 0 -32.5 13.5t-13.5 33.5q0 19 13.5 32.5t32.5 13.5t32.5 -13.5t13.5 -32.5q0 -20 -13.5 -33.5t-32.5 -13.5zM999 575q-13 53 -41 88t-81 35h-92v-108q0 -63 -45.5 -108.5t-106.5 -45.5h-244q-50 0 -85.5 -37t-35.5 -87v-233 q0 -49 36.5 -79t84.5 -44q58 -17 116.5 -19t127.5 19q46 13 84 42t38 81v93h-244v31h366q53 0 78 34t44 90q19 57 18.5 115.5t-18.5 132.5v0zM648 110q19 0 32.5 -13.5t13.5 -32.5t-13.5 -32.5t-32.5 -13.5t-32 13.5t-13 32.5t13 32.5t32 13.5z" />
</svg>
