<svg xmlns="http://www.w3.org/2000/svg" version="1.1" icon="this_is_a_hook" viewBox="100 14 1160 870" transform="scale(1,-1)">
<title>R</title>
<path d="M724 120v-107h-178v116q-96 15 -178 50q-81 35 -140.5 84t-93.5 110t-34 129q0 79 46 149q46 69 124.5 121t183.5 82q106 30 226 30t226 -30q105 -30 184 -82t124 -121q46 -70 46 -149q0 -44 -15 -85q-14 -41 -40.5 -78.5t-64.5 -69.5q-38 -33 -85 -59q16 -26 35 -60 t35.5 -64.5t26.5 -51.5l11 -21h-209l-60 113q-2 5 -4.5 9t-4.5 9q-38 -10 -78.5 -16t-82.5 -8v0zM830 215v0q-7 7 -12.5 12t-10.5 9q-13 12 -48 13l-35 1v-35q12 -1 24.5 -1.5t25.5 -0.5q14 0 28 0.5t28 1.5zM1016 257q88 35 141 92.5t53 125.5q0 54 -34 102 q-34 47 -93.5 83t-138.5 56q-80 21 -170 21t-170 -21q-79 -20 -138.5 -56t-93.5 -83q-34 -48 -34 -102q0 -36 15 -68q15 -33 42 -62t66 -52q38 -24 85 -41v402h310q47 0 83 -4.5t60 -12.5q24 -9 43.5 -24.5t34.5 -36.5q14 -22 21.5 -46.5t7.5 -50.5q0 -34 -2.5 -64.5 t-26.5 -54.5q-24 -23 -53.5 -39.5t-80.5 -23.5q15 -6 37 -18.5t36 -21.5v0v0zM725 392h105q17 0 30.5 2t22.5 5q9 4 16.5 10t12.5 14t7.5 17t2.5 18q0 14 -5 25.5t-14 20.5q-10 9 -25 13.5t-36 4.5h-117v-130v0z" />
</svg>
