<?xml version="1.0" standalone="no"?>
<!DOCTYPE svg PUBLIC "-//W3C//DTD SVG 1.1//EN" "http://www.w3.org/Graphics/SVG/1.1/DTD/svg11.dtd" >
<svg xmlns="http://www.w3.org/2000/svg" xmlns:xlink="http://www.w3.org/1999/xlink" version="1.1" width="64" heigth="64" viewBox="0 -64 1024 1024" transform="scale(1,-1)">
<path d="M489 514q-1 10 -0.5 20t1.5 20q1 19 1 36.5t-8 32.5v0.5v0.5l-9 22l-9 -13l6 -1l-2 -12l-14 3q-1 0 -2.5 1t-1.5 2q-1 2 -1 3t1 3l18 30q1 2 2.5 2.5t3.5 0.5t3 -1l2 -2l14 -34q8 -17 8.5 -36.5t-1.5 -38.5q0 -10 -0.5 -19.5t-0.5 -18.5l-11 -1v0zM540 554q-1 19 -1 36.5 t8 32.5v0.5v0.5l9 22l8 -13l-5 -1l2 -12l14 3q1 0 2 1l2 2q1 2 0.5 3t-0.5 3l-19 30q0 2 -1.5 2.5t-3.5 0.5t-3 -1l-2 -2l-14 -34q-9 -17 -9 -36.5t2 -38.5q0 -10 0.5 -19.5t0.5 -18.5l11 -1q1 10 0.5 20t-1.5 20v0zM402 480q-14 0 -24 -10t-10 -24t10 -23.5t24 -9.5 t23.5 9.5t9.5 23.5t-9.5 24t-23.5 10v0zM624 483q-14 0 -23.5 -9.5t-9.5 -23.5t9.5 -23.5t23.5 -9.5t24 9.5t10 23.5t-10 23.5t-23 9.5h-1zM509 163l-23 38v42h-10v-43v-1.5v-1.5l24 -39l9 5v0zM562 163l-23 38v42h-10v-43v-1.5v-1.5l24 -39l9 5v0zM927 439 q-25 -18 -52.5 -29t-55.5 -15q7 -4 14.5 -8.5t14.5 -9.5q60 -44 75 -113t-24 -123q-40 -54 -110 -60.5t-130 37.5q-36 26 -56 62.5t-23 74.5q-15 -5 -31 -7.5t-34 -2.5q-15 0 -30 2t-29 7q-4 -38 -24 -73.5t-55 -60.5q-60 -44 -130 -37.5t-109 60.5q-40 53 -25 122t75 113 q10 7 19.5 12.5t19.5 9.5q-33 2 -66 13.5t-63 33.5q-37 28 -61 64q-24 37 -32.5 77t-1.5 79q8 40 32 73q24 34 60 52q35 19 75.5 23t83.5 -8q42 -11 79 -39q65 -47 88 -119.5t-4 -135.5q7 -2 13.5 -5.5t12.5 -7.5q16 6 34.5 9.5t37.5 3.5q18 0 35 -3t33 -8q5 4 11 6.5 t12 4.5q-22 62 1.5 131t85.5 114q37 28 79 39t82 7.5t76 -22.5q35 -19 59 -52t32 -72q7 -40 -1.5 -79.5t-32.5 -75.5q-23 -37 -60 -64v0zM344 411q-2 3 -3.5 6.5t-2.5 6.5q-5 -2 -9.5 -4.5t-9.5 -4.5q6 0 12.5 -1t12.5 -3zM452 446q0 21 -14.5 36t-35.5 15t-35.5 -15 t-14.5 -36q0 -20 14.5 -35t35.5 -15t35.5 15t14.5 35zM576 335v3h-15v-1.5v-4.5q2 -9 0.5 -15.5t-7.5 -10.5q-10 -8 -31 -5.5t-39 13.5q-4 2 -12 9.5t-7 17.5l-15 2q-1 -12 5.5 -23t21.5 -19q9 -6 21 -10t23 -5q3 -1 5.5 -1h4.5q10 0 18 2.5t14 6.5q7 4 12 14t1 27v0z M674 450q0 21 -14.5 35.5t-34.5 14.5q-21 0 -36 -14.5t-15 -35.5t15 -35.5t36 -14.5q20 0 34.5 14.5t14.5 35.5v0zM699 411l-8 4l-8 4l-2 -4t-3 -4l1.5 -3t0.5 -2q4 1 9 2.5t10 2.5v0z" />
</svg>
