<?xml version="1.0" standalone="no"?>
<!DOCTYPE svg PUBLIC "-//W3C//DTD SVG 1.1//EN" "http://www.w3.org/Graphics/SVG/1.1/DTD/svg11.dtd" >
<svg xmlns="http://www.w3.org/2000/svg" xmlns:xlink="http://www.w3.org/1999/xlink" version="1.1" width="64" heigth="64" viewBox="0 -64 1024 1024" transform="scale(1,-1)">
<path d="M571 634q0 -55 -17 -106q-17 -52 -50.5 -94.5t-83.5 -72.5t-116 -41l248 -292l25 33l447 632v267h-723q67 -12 118 -43q50 -31 84 -75.5t51 -97.5q17 -54 17 -110v0zM698 -25l326 458v-497h-351l25 39v0zM63 455h174q93 0 140 56.5t47 122.5t-46 122.5t-141 56.5h-237 v-874h433l-372 447v69h2v0v0z" />
</svg>
