<svg xmlns="http://www.w3.org/2000/svg" version="1.1" icon="this_is_a_hook" viewBox="0 -64 1024 1024" transform="scale(1,-1)">
<title>Ruby</title>
<path d="M703 219l190 -169l-374 30q55 33 100 70t79 69h1.5h1.5h1h1v0zM914 118l35 459q-13 -34 -33.5 -72t-47.5 -79l46 -308v0zM716 229l190 -168l-51 344q-31 -46 -67.5 -92t-71.5 -84v0zM494 65q-30 -17 -61.5 -30.5t-63.5 -23.5l437 30l-312 24v0zM129 286l115 -267l94 312 l-209 -45v0zM366 347l319 -103l-82 322l-237 -219v0zM621 598l297 20l-232 190l-65 -210v0zM790 891l-195 1l87 -61zM72 399l-6 -190l47 86l-41 104v0zM179 323q28 -2 56 4t56 18q19 9 39 20.5t40 25.5q28 20 57 45t57 53q52 52 89 105q36 53 54 100.5t17 85.5q-2 39 -24 62 q-11 11 -26.5 16.5t-35.5 5.5q-30 0 -66 -11q-37 -11 -76.5 -31.5t-79.5 -50.5q-41 -30 -79 -68q-36 -36 -66 -75q-30 -38 -51 -76t-32 -74q-12 -36 -12 -66q0 -22 6 -38.5t18 -28.5q10 -11 25 -16t34 -6v0zM468 70q4 1 7 3l6 4l-128 247l-96 -320l3.5 0.5l3.5 0.5 q6 1 12.5 2t12.5 2q40 7 79 19t77 30l12 6t11 6v0zM730 274l4 3q1 2 2.5 4t3.5 4l3.5 4.5t5.5 6.5q3 4 6.5 8t6.5 8t6 7.5t6 7.5l6 8l6 8q7 9 14 18.5t15 20.5t15.5 22.5t14.5 22.5l-17 10q-35 21 -94.5 58t-105.5 65l79 -313q5 6 11 13l12 14v0zM953 777l-245 34l234 -191 q6 21 10 40.5t6 37.5v5.5t1 5.5v4.5v5.5q0 15 -1 30t-5 28v0zM859 441q0 1 0.5 1.5l1.5 1.5q4 5 8.5 13t10.5 18q15 27 31.5 62t24.5 64l-305 -21q48 -29 108 -66t95 -58l25 -15v0v0v0zM493 80l1 1q50 28 96.5 63t96.5 84l-325 105l131 -253v0zM65 175q1 -32 7.5 -58 t19.5 -46l15 181l-42 -77v0zM124 264l-17 -209q18 -24 44 -35.5t63 -11.5h8t8 1l-9 21q-7 18 -19 49q-13 32 -27 66t-28 67q-14 32 -23 52v0zM950 790q-3 8 -6.5 15.5t-7.5 14.5q-17 28 -45.5 45.5t-67.5 24.5l-119 -66l246 -34v0z" />
</svg>
