<?xml version="1.0" standalone="no"?>
<!DOCTYPE svg PUBLIC "-//W3C//DTD SVG 1.1//EN" "http://www.w3.org/Graphics/SVG/1.1/DTD/svg11.dtd" >
<svg xmlns="http://www.w3.org/2000/svg" xmlns:xlink="http://www.w3.org/1999/xlink" version="1.1" width="64" heigth="64" viewBox="0 -64 1016 1024" transform="scale(1,-1)">
<path d="M555 886v0q-18 18 -26.5 33.5t-20.5 21.5q-12 -18 -23.5 -33.5t-22.5 -21.5q-12 12 -27.5 25.5t-27.5 13.5q0 -12 -5.5 -27.5t-17.5 -26.5q-17 6 -33.5 15.5t-28.5 15.5q-6 -18 -8 -34.5t-8 -27.5q-23 6 -40.5 10.5t-28.5 4.5q5 -35 -12 -54t-58 -8q0 -17 3 -34.5 t-3 -35.5h-62q0 -11 4.5 -29.5t10.5 -47.5q-23 0 -39.5 -5t-22.5 -11q6 -11 18.5 -26.5t12.5 -27.5q-11 -12 -26.5 -17.5t-27.5 -5.5v-24q12 -5 22.5 -16t16.5 -22q-18 -18 -33.5 -26.5t-21.5 -20.5q18 -12 33.5 -23.5t21.5 -22.5q-12 -12 -26.5 -23.5t-20.5 -23.5 q18 -6 34.5 -12.5t27.5 -18.5q-6 -17 -15.5 -33.5t-15.5 -28.5q18 -6 34.5 -8t27.5 -8q-6 -23 -10.5 -40.5t-4.5 -28.5q35 5 54 -9.5t8 -60.5q17 0 34.5 3t35.5 -3v-62q11 0 29.5 4.5t47.5 10.5q0 -17 4 -33.5t4 -28.5q17 6 33.5 15.5t28.5 15.5q12 -11 17.5 -26.5 t5.5 -27.5h24q5 12 16 22.5t22 16.5q12 -18 23.5 -33.5t23.5 -21.5q12 18 23.5 33.5t22.5 21.5q12 -12 21.5 -22.5t9.5 -16.5h24q0 17 9.5 32.5t21.5 21.5q11 -6 26.5 -15.5t27.5 -15.5q6 18 8 34.5t8 27.5q23 -6 40.5 -10.5t28.5 -4.5q0 35 6 63t64 -1q0 17 -3 34.5t3 35.5 h62q0 11 -4.5 29.5t-10.5 47.5q17 0 33.5 4t28.5 4q-6 17 -18.5 33.5t-12.5 28.5q17 12 33.5 18.5t28.5 12.5q-12 12 -26.5 27.5t-20.5 26.5q18 18 33.5 26.5t21.5 20.5q-18 12 -33.5 23.5t-21.5 22.5q12 12 26.5 23.5t20.5 23.5q-18 6 -34.5 12.5t-27.5 18.5 q6 17 15.5 33.5t15.5 28.5q-18 6 -34.5 8t-27.5 8q6 23 10.5 40.5t4.5 28.5q-35 -5 -63 12t1 58q-17 0 -34.5 -3t-35.5 3v62q-11 0 -29.5 -4.5t-47.5 -10.5q0 17 -4 33.5t-4 28.5q-17 -6 -33.5 -15.5t-28.5 -15.5q-12 11 -17.5 26.5t-5.5 27.5q-24 -12 -37.5 -22.5 t-24.5 -16.5v0zM531 855q0 -6 4 -8.5t4 -14.5q0 -17 -6.5 -24t-24.5 -7q-12 0 -14.5 4t-8.5 4v31l15 15h31v0zM508 754q12 0 35 27.5t35 27.5q20 0 62 -18q41 -18 82.5 -45t72.5 -58q31 -32 31 -58q0 -11 -19.5 -39.5t-19.5 -45.5q0 -12 31 -31t55 -31v-54q-6 -6 -9 -3 t-15 3q-29 0 -20 -39t-49 -39q-47 0 -49 40.5t-37 75.5q18 18 37.5 40t24.5 46q6 6 7 6t1 17q0 41 -40.5 78.5t-75.5 37.5h-404q12 12 38 32q27 19 56.5 38t57.5 33t42 14q18 0 35.5 -27.5t34.5 -27.5v0v0zM190 560q-6 -5 -12.5 -18t-18.5 -13q-17 0 -14.5 1t-8.5 7 q0 6 -4 9t-4 14q0 18 8.5 22t14.5 10q12 -6 22.5 -13t16.5 -19v0v0zM268 584v-233h-117q6 23 3 52t-3 41v31q6 41 52.5 46t17.5 63h47v0zM593 545q0 -12 -5.5 -18.5t-17.5 -12.5h-139v70h54q29 0 68.5 -5t39.5 -34v0v0zM888 576v-39q-6 0 -14.5 -4t-31.5 -4q0 6 -4 10t-4 21 q0 12 5 15t10 9zM531 413q59 -35 52 -83.5t57 -94.5h163q-12 -12 -16.5 -25.5t-22.5 -13.5q-12 0 -27.5 7.5t-26.5 7.5q-41 0 -39 -31t-15 -54q-6 -6 -65.5 -22.5t-82.5 -16.5t-82 16.5t-65 22.5q-12 18 -16 40t-15 45q-35 6 -63 -8.5t-46 32.5h303v116h-93v62h100v0z M314 173q0 -6 4 -10t4 -21q0 -12 -5 -15t-11 -9h-31q-5 6 -10 10t-5 21q0 12 8.5 15t14.5 9h31v0zM749 173q0 -6 3.5 -9t3.5 -15q0 -17 -4.5 -21t-10.5 -10h-31q0 6 -4 10t-4 21q0 12 5 15t11 9h31z" />
</svg>
