<svg xmlns="http://www.w3.org/2000/svg" version="1.1" icon="this_is_a_hook" viewBox="0 -64 1352 1024" transform="scale(1,-1)">
<title>Sass</title>
<path d="M843 782v0q0 50 -24 81t-59.5 49t-76.5 25q-40 6 -74 6q-60 0 -135 -20q-76 -20 -152 -57t-145 -88q-70 -52 -119 -116q-23 -29 -34.5 -61t-11.5 -63q0 -43 27 -81q28 -38 68 -72t85 -65t80 -60l-78 -44t-70.5 -48t-50.5 -58q-20 -31 -20 -71q0 -51 26 -70t70 -19 q47 0 86 19q38 19 65 50t42 71q15 39 15 81q0 20 -6 41.5t-12 39.5q20 11 45 27.5t31 16.5q3 0 4 -1.5l1 -1.5q-8 -9 -13 -43.5t-5 -52.5q0 -17 13 -72t54 -55q37 0 56 51.5t35 73.5q2 -4 0 -13.5t0 -46.5q0 -14 8 -30.5t26 -16.5q19 0 47 42q27 43 52.5 94.5t43.5 95.5 q19 45 21 49q2 2 3.5 5t3.5 3q4 -18 8.5 -35t10.5 -33q3 -12 13 -27.5t10 -19.5q0 -12 -49.5 -62.5t-49.5 -69.5q0 -12 10 -16.5t24 -4.5q35 0 85 25.5t50 83.5q0 16 -6 32.5t-9 29.5l83 138q4 -17 7 -35t11 -35q4 -10 11 -20.5t7 -15.5q0 -4 -37.5 -43.5t-37.5 -84.5 q0 -11 4.5 -22.5t23.5 -11.5q28 0 75 32.5t47 77.5q0 3 -5 23t-5 26q0 12 40.5 16.5t50.5 4.5q35 0 83 -12t76 -53q7 -10 12.5 -21.5t5.5 -25.5q0 -6 -2 -13t-6 -13q-8 -14 -19.5 -25.5t-19.5 -21.5h10q12 0 31 24t21 28q4 8 6 17t2 14q0 65 -58 103t-126 38 q-30 0 -61.5 -5.5t-58.5 -23.5q-19 25 -26.5 51.5t-7.5 49.5q0 26 9.5 46.5t9.5 26.5q0 8 -14 10.5t-20 2.5q-8 0 -26.5 -2.5t-20.5 -10.5q-4 -8 -6.5 -18t-3.5 -18q-12 -39 -36 -81.5t-48 -77.5q-11 12 -17 39.5t-6 41.5q0 29 9 49t9 26q0 12 -16 11.5t-20 -0.5 q-10 0 -24 1t-18 -9q-8 -10 -9 -22.5t-6 -24.5q-28 -64 -57 -128.5t-60 -128.5q0 -2 -3 -5.5t-5 -5.5q-2 2 -2.5 4t-2.5 2v23l36 151q-2 6 -10 12t-13 6q-6 0 -9.5 -4t-9.5 -4q-5 0 0 41.5t-44 41.5q-19 0 -41.5 -10.5t-43.5 -33.5q-10 -8 -18 -19t-14 -15 q-33 -21 -79.5 -46.5t-50.5 -25.5q-5 0 -21 18t-28 26q-62 45 -113 93t-51 104q0 66 58 127t140 108.5t171 76.5t151 29q35 0 93 -16t58 -80q0 -50 -34 -95q-33 -44 -83 -77.5t-109 -52.5q-59 -20 -109 -20q-24 0 -62.5 12t-52.5 35h-8v-16q0 -17 34.5 -37t36.5 -20 q27 -9 41 -11t39 -2q38 0 84 9q46 8 91 27t86 50t69 75q24 39 34 68.5t10 64.5v0zM576 379q0 -5 -11 -41t-25.5 -78t-30.5 -76t-27 -34q-12 0 -13.5 26.5t-1.5 28.5q0 37 26.5 109.5t71.5 72.5q4 0 7.5 -2t3.5 -6v0v0zM1002 262q0 -19 -12.5 -41.5t-42.5 -28.5v13 q4 18 17.5 41t34.5 37q2 -6 2.5 -11.5t0.5 -9.5v0v0zM308 184q0 -4 -4.5 -23.5t-8.5 -33.5q-12 -37 -54 -72t-73 -35q-20 0 -27 10.5t-7 26.5q0 56 57 102.5t112 71.5q2 -12 3.5 -26.5t1.5 -20.5v0v0zM823 215q-2 -17 -20.5 -36t-34.5 -31h-10l65 75v-8v0z" />
</svg>
