<svg xmlns="http://www.w3.org/2000/svg" version="1.1" icon="this_is_a_hook" viewBox="0 -64 1024 1024" transform="scale(1,-1)">
<title>SQL</title>
<path d="M581 372q-10 12 -23.5 18.5t-31.5 6.5l-14 -1v1q-13 -2 -23.5 -8.5t-18.5 -16.5q-11 -13 -16 -30.5t-5 -38.5q0 -22 5 -39.5t16 -29.5q8 -11 18.5 -17t23.5 -8v0l13 -1q17 0 31 6t24 18q10 13 15 30t5 39t-4.5 40t-14.5 31v0zM512 583q-95 0 -178 9q-84 10 -146 26.5 t-98 38.5t-36 47v-647q0 -25 36 -47t98 -38.5t146 -25.5q83 -10 178 -10t178 10q84 9 146 25.5t98 38.5t36 47v647q0 -25 -36 -47t-98 -38.5t-146 -26.5q-83 -9 -178 -9v0zM336 195q-5 -8 -11.5 -15t-14.5 -12q-9 -6 -18.5 -9.5t-20.5 -6.5q-11 -2 -22.5 -3t-23.5 -1t-24 1 t-23 3q-12 2 -21.5 5t-17.5 7v66q9 -8 18.5 -13.5t20.5 -9.5t21.5 -5.5t21.5 -1.5l23 2l15 7q4 2 6 4.5t4 5.5l3 12q0 5 -1 9t-4 7l-13 13l-21 11l-25 11q-18 7 -31 16t-21 20q-9 11 -13 23.5t-4 27.5q0 12 2 22t7 18q5 9 11.5 16t14.5 12q8 6 17.5 10t20.5 6q10 3 21.5 4 t23.5 1l42 -3q9 -1 17.5 -3t16.5 -5v-62l-17 9l-18 7l-19 4l-17 1l-21 -2l-16 -6l-10 -10q-1 -3 -2 -6.5t-1 -6.5q0 -4 1 -7.5t3 -6.5l11 -11l18 -11l23 -10l32 -16q7 -4 13.5 -9t11.5 -10q5 -6 8.5 -12t6.5 -13t4.5 -15t1.5 -17q-1 -12 -3 -22.5t-7 -19.5v0zM695 67l-18 -4 l-29 -2q-11 0 -20.5 1.5t-18.5 5.5q-8 3 -16.5 7.5t-16.5 10.5t-15.5 13t-15.5 15l-31 33h-2v1q-15 0 -29 3.5t-26 9.5q-13 6 -24 14t-20 18t-16 22t-12 25q-4 14 -6.5 28.5t-2.5 30.5q0 36 10 64.5t31 50.5q19 20 42.5 30.5t52.5 13.5v-1l17 1q32 0 58.5 -10.5t46.5 -32.5 q20 -21 30 -48.5t10 -62.5q0 -26 -6.5 -49.5t-18.5 -42.5t-29 -32.5t-39 -21.5l21 -20l19 -13l21 -6l23 -2l7 1l8 1l8 1l7 2v-55v0zM902 152h-181v301h69v-245h112v-56v0zM512 960q-95 0 -178 -10q-84 -9 -146 -25.5t-98 -38.5t-36 -47v-54q0 -25 36 -47t98 -38.5t146 -26.5 q83 -9 178 -9t178 9q84 10 146 26.5t98 38.5t36 47v54q0 25 -36 47t-98 38.5t-146 25.5q-83 10 -178 10zM512 798q-78 0 -147 3q-69 4 -120 9.5t-81 12.5q-29 7 -29 16q0 8 29 15q30 8 81 13.5t120 8.5t147 3t147 -3t120 -8.5t81 -13.5q29 -7 29 -15q0 -9 -29 -16 q-30 -7 -81 -12.5t-120 -9.5q-69 -3 -147 -3z" />
</svg>
