<svg icon="this_is_a_hook" xmlns="http://www.w3.org/2000/svg"><title>SQL</title> <path d="M 0 3.32 C 0.59 1.43 4.89 0 10 0 C 15.11 0 19.41 1.43 20 3.32 L 20 20.68 C 19.41 22.57 15.11 24 10 24 C 4.89 24 0.59 22.57 0 20.68 Z M 2.93 3.32 C 2.93 4.37 6.1 5.23 10.01 5.23 C 13.93 5.23 17.1 4.37 17.1 3.32 C 17.1 2.26 13.93 1.4 10.01 1.4 C 6.1 1.4 2.93 2.26 2.93 3.32 Z M 6.77 10.48 C 5.9 10.29 5 10.29 4.13 10.5 C 3.55 10.7 3.15 11.19 3.11 11.76 C 3.06 12.29 3.34 12.82 3.84 13.11 L 5.05 13.57 C 5.17 13.64 5.24 13.76 5.24 13.89 C 5.23 14.02 5.15 14.14 5.02 14.2 C 4.7 14.25 4.36 14.23 4.05 14.13 L 3.17 13.76 L 3.14 15.07 C 3.67 15.26 4.24 15.35 4.81 15.34 C 5.4 15.36 5.98 15.21 6.47 14.9 C 6.83 14.61 7.05 14.2 7.09 13.76 C 7.07 13.28 6.77 12.83 6.31 12.58 L 4.99 11.97 C 4.9 11.85 4.9 11.69 5 11.56 C 5.09 11.44 5.26 11.38 5.42 11.42 C 5.9 11.42 6.36 11.54 6.77 11.76 Z M 10.12 11.59 C 10.66 11.59 11.09 12.15 11.09 12.83 C 11.09 13.52 10.66 14.08 10.12 14.08 C 9.59 14.08 9.15 13.52 9.15 12.83 C 9.15 12.15 9.59 11.59 10.12 11.59 Z M 11.32 15.05 C 12.33 14.6 12.92 13.63 12.81 12.63 C 12.73 11.73 12.15 10.93 11.28 10.5 C 10.66 10.26 9.97 10.23 9.34 10.43 C 8.53 10.59 7.87 11.12 7.6 11.83 C 7.24 12.65 7.35 13.57 7.89 14.3 C 8.36 14.91 9.11 15.29 9.93 15.34 L 11.03 16.47 L 13.18 16.47 Z M 13.56 15.24 L 17.05 15.24 L 17.05 14.05 L 15.17 14.05 L 15.17 10.38 L 13.56 10.38 Z"/></svg>