<svg xmlns="http://www.w3.org/2000/svg" version="1.1" icon="this_is_a_hook" viewBox="0 -64 1024 1024" transform="scale(1,-1)">
<title>Swift</title>
<path d="M882 412q0 -8 -1 -37t-8 -50q0 -4 -2.5 -6.5t-2.5 -13.5q0 -7 13 -21t21 -32q14 -22 25 -52t18 -59l-5 -78q-32 47 -60 62.5t-61 15.5q-76 0 -130 -39t-170 -39q-58 0 -123 17q-65 16 -129 49.5t-123 84.5q-58 51 -104 120q36 -23 75 -42t78.5 -32t78.5 -20q40 -7 78 -7 q47 0 99.5 12.5t103.5 45.5q-58 43 -117 99q-58 56 -113 116.5t-104 121.5q-49 60 -87 113l353 -266l5 4l-247 310q51 -51 104 -98q54 -47 108.5 -90.5t109.5 -83.5t109 -76q11 18 22.5 66.5t11.5 73.5q0 33 -8 72q-7 39 -21 79t-32 78q-19 37 -41 66q73 -49 125 -106 t85.5 -117t49.5 -122q16 -61 16 -119v0z" />
</svg>
