<?xml version="1.0" standalone="no"?>
<!DOCTYPE svg PUBLIC "-//W3C//DTD SVG 1.1//EN" "http://www.w3.org/Graphics/SVG/1.1/DTD/svg11.dtd" >
<svg xmlns="http://www.w3.org/2000/svg" xmlns:xlink="http://www.w3.org/1999/xlink" version="1.1" width="64" heigth="64" viewBox="0 -64 1096 1024" transform="scale(1,-1)">
<path d="M1076 946h-1062v-991h1062v991zM1005 32h-926v849h926v-849zM956 508v-55q-42 21 -52.5 21.5t-35.5 0.5q-33 0 -71.5 -11t-38.5 -60q0 -33 34 -51q33 -18 73 -38t74 -50q33 -30 33 -85q0 -66 -55 -93.5t-104 -27.5q-33 0 -70.5 11.5t-49.5 16.5v54q57 -16 64.5 -21.5 t44.5 -5.5t70.5 13t33.5 58q0 35 -33 55t-73.5 39.5t-73.5 45.5t-33 74q0 82 58 106.5t111 24.5q13 0 43 -7t51 -15v0v0zM632 519v-55h-131v-394h-66v394h-131q0 33 2.5 42t2.5 13h323v0z" />
</svg>
