<?xml version="1.0" standalone="no"?>
<!DOCTYPE svg PUBLIC "-//W3C//DTD SVG 1.1//EN" "http://www.w3.org/Graphics/SVG/1.1/DTD/svg11.dtd" >
<svg xmlns="http://www.w3.org/2000/svg" xmlns:xlink="http://www.w3.org/1999/xlink" version="1.1" width="64" heigth="64" viewBox="0 -64 1024 1024" transform="scale(1,-1)">
<path d="M4 756q1 -4 8 -31q6 -28 16.5 -72.5t24.5 -101.5q14 -58 29 -121l73 -308h91q37 0 63.5 0.5t26.5 1.5t24 100q23 100 51.5 219.5t52.5 220.5t25 104q2 5 -8 5.5t-55 0.5h-65l-3 -13q-1 -2 -6 -25t-12.5 -59l-17.5 -84q-10 -47 -21 -100q-23 -106 -39 -181t-17 -75l-5 22 q-5 21 -13 57t-18 85q-11 49 -22 104l-56 268l-66 1h-65l4 -18v0zM571 448v-326h133q108 0 148 3.5t73 15.5q50 19 74.5 58.5t24.5 101.5q0 67 -31 109.5t-90 55.5l-20 4l20 6q36 10 58 30t32 51q7 25 6 61t-10 59q-8 21 -27 41.5t-42 30.5q-32 17 -70 21t-148 4h-131v-326 v0zM837 663q14 -7 21.5 -18t11.5 -29q6 -27 -1.5 -49.5t-26.5 -33.5q-12 -7 -23 -8.5t-59 -2.5l-66 -1v152l64 -1q44 -1 56.5 -2.5t22.5 -6.5v0zM834 411q15 -4 28.5 -14.5t19.5 -22.5q7 -13 9.5 -36.5t-0.5 -43.5q-7 -43 -36.5 -57t-107.5 -13l-51 1l-1 96l-1 95h61 q33 0 51 -1t28 -4v0z" />
</svg>
